<svg xmlns="http://www.w3.org/2000/svg" xmlns:xlink="http://www.w3.org/1999/xlink" width="500" zoomAndPan="magnify" viewBox="0 0 375 374.999991" height="500" preserveAspectRatio="xMidYMid meet" version="1.0"><defs><clipPath id="82eb57bf61"><path d="M 0 16.003906 L 375 16.003906 L 375 313 L 0 313 Z M 0 16.003906 " clip-rule="nonzero"/></clipPath><clipPath id="08a4492dd9"><path d="M 96 328 L 278 328 L 278 358.753906 L 96 358.753906 Z M 96 328 " clip-rule="nonzero"/></clipPath></defs><path fill="#f5929f" d="M 33.046875 20.882812 L 341.953125 20.882812 C 342.875 20.882812 343.796875 20.925781 344.71875 21.019531 C 345.636719 21.109375 346.550781 21.242188 347.457031 21.425781 C 348.363281 21.605469 349.257812 21.828125 350.144531 22.097656 C 351.027344 22.363281 351.894531 22.675781 352.75 23.027344 C 353.605469 23.382812 354.4375 23.777344 355.253906 24.210938 C 356.070312 24.648438 356.859375 25.121094 357.628906 25.632812 C 358.398438 26.148438 359.136719 26.695312 359.851562 27.28125 C 360.566406 27.867188 361.25 28.488281 361.90625 29.140625 C 362.558594 29.792969 363.179688 30.476562 363.765625 31.191406 C 364.351562 31.90625 364.898438 32.644531 365.414062 33.414062 C 365.925781 34.183594 366.402344 34.972656 366.835938 35.789062 C 367.273438 36.601562 367.667969 37.4375 368.019531 38.289062 C 368.375 39.140625 368.6875 40.011719 368.953125 40.894531 C 369.222656 41.777344 369.445312 42.671875 369.625 43.578125 C 369.808594 44.484375 369.941406 45.398438 370.03125 46.316406 C 370.125 47.234375 370.167969 48.15625 370.167969 49.078125 L 370.167969 279.609375 C 370.167969 280.535156 370.125 281.453125 370.03125 282.375 C 369.941406 283.292969 369.808594 284.207031 369.625 285.109375 C 369.445312 286.015625 369.222656 286.910156 368.953125 287.796875 C 368.6875 288.679688 368.375 289.546875 368.019531 290.402344 C 367.667969 291.253906 367.273438 292.085938 366.835938 292.902344 C 366.402344 293.714844 365.925781 294.507812 365.414062 295.277344 C 364.898438 296.042969 364.351562 296.785156 363.765625 297.5 C 363.179688 298.210938 362.558594 298.894531 361.90625 299.546875 C 361.25 300.203125 360.566406 300.820312 359.851562 301.40625 C 359.136719 301.992188 358.398438 302.542969 357.628906 303.054688 C 356.859375 303.570312 356.070312 304.042969 355.253906 304.476562 C 354.4375 304.914062 353.605469 305.308594 352.75 305.660156 C 351.894531 306.015625 351.027344 306.324219 350.144531 306.59375 C 349.257812 306.863281 348.363281 307.085938 347.457031 307.265625 C 346.550781 307.445312 345.636719 307.582031 344.71875 307.671875 C 343.796875 307.761719 342.875 307.808594 341.953125 307.808594 L 33.046875 307.808594 C 32.125 307.808594 31.203125 307.761719 30.28125 307.671875 C 29.363281 307.582031 28.449219 307.445312 27.542969 307.265625 C 26.636719 307.085938 25.742188 306.863281 24.859375 306.59375 C 23.972656 306.324219 23.105469 306.015625 22.25 305.660156 C 21.398438 305.308594 20.5625 304.914062 19.746094 304.476562 C 18.933594 304.042969 18.140625 303.570312 17.371094 303.054688 C 16.605469 302.542969 15.863281 301.992188 15.148438 301.40625 C 14.433594 300.820312 13.75 300.203125 13.097656 299.546875 C 12.441406 298.894531 11.824219 298.210938 11.238281 297.5 C 10.648438 296.785156 10.101562 296.042969 9.585938 295.277344 C 9.074219 294.507812 8.597656 293.714844 8.164062 292.902344 C 7.726562 292.085938 7.332031 291.253906 6.980469 290.402344 C 6.625 289.546875 6.316406 288.679688 6.046875 287.796875 C 5.777344 286.910156 5.554688 286.015625 5.375 285.109375 C 5.195312 284.207031 5.058594 283.292969 4.96875 282.375 C 4.875 281.453125 4.832031 280.535156 4.832031 279.609375 L 4.832031 49.078125 C 4.832031 48.15625 4.875 47.234375 4.96875 46.316406 C 5.058594 45.398438 5.195312 44.484375 5.375 43.578125 C 5.554688 42.671875 5.777344 41.777344 6.046875 40.894531 C 6.316406 40.011719 6.625 39.140625 6.980469 38.289062 C 7.332031 37.4375 7.726562 36.601562 8.164062 35.789062 C 8.597656 34.972656 9.074219 34.183594 9.585938 33.414062 C 10.101562 32.644531 10.648438 31.90625 11.238281 31.191406 C 11.824219 30.476562 12.441406 29.792969 13.097656 29.140625 C 13.75 28.488281 14.433594 27.867188 15.148438 27.28125 C 15.863281 26.695312 16.605469 26.148438 17.371094 25.632812 C 18.140625 25.121094 18.933594 24.648438 19.746094 24.210938 C 20.5625 23.777344 21.398438 23.382812 22.25 23.027344 C 23.105469 22.675781 23.972656 22.363281 24.859375 22.097656 C 25.742188 21.828125 26.636719 21.605469 27.542969 21.425781 C 28.449219 21.242188 29.363281 21.109375 30.28125 21.019531 C 31.203125 20.925781 32.125 20.882812 33.046875 20.882812 Z M 33.046875 20.882812 " fill-opacity="1" fill-rule="nonzero"/><g clip-path="url(#82eb57bf61)"><path fill="#231f20" d="M 341.953125 312.636719 L 33.046875 312.636719 C 31.964844 312.632812 30.886719 312.582031 29.808594 312.472656 C 28.734375 312.367188 27.664062 312.207031 26.605469 311.996094 C 25.542969 311.78125 24.496094 311.519531 23.460938 311.207031 C 22.425781 310.890625 21.40625 310.527344 20.40625 310.113281 C 19.40625 309.695312 18.429688 309.234375 17.476562 308.726562 C 16.523438 308.214844 15.597656 307.660156 14.695312 307.058594 C 13.796875 306.457031 12.929688 305.8125 12.09375 305.128906 C 11.257812 304.441406 10.457031 303.714844 9.691406 302.953125 C 8.925781 302.1875 8.199219 301.386719 7.511719 300.550781 C 6.828125 299.714844 6.183594 298.847656 5.582031 297.949219 C 4.980469 297.050781 4.421875 296.125 3.914062 295.171875 C 3.402344 294.21875 2.941406 293.242188 2.527344 292.242188 C 2.109375 291.242188 1.746094 290.226562 1.429688 289.191406 C 1.117188 288.15625 0.851562 287.109375 0.640625 286.050781 C 0.429688 284.988281 0.269531 283.921875 0.164062 282.84375 C 0.0546875 281.769531 0 280.691406 0 279.609375 L 0 49.082031 C 0 48 0.0546875 46.921875 0.164062 45.84375 C 0.269531 44.769531 0.429688 43.699219 0.640625 42.640625 C 0.851562 41.578125 1.117188 40.53125 1.429688 39.496094 C 1.746094 38.464844 2.109375 37.445312 2.527344 36.449219 C 2.941406 35.449219 3.402344 34.472656 3.914062 33.519531 C 4.421875 32.566406 4.980469 31.640625 5.582031 30.742188 C 6.183594 29.84375 6.828125 28.972656 7.511719 28.140625 C 8.199219 27.304688 8.925781 26.503906 9.691406 25.738281 C 10.457031 24.972656 11.257812 24.25 12.09375 23.5625 C 12.929688 22.875 13.796875 22.234375 14.695312 21.632812 C 15.597656 21.03125 16.523438 20.476562 17.476562 19.964844 C 18.429688 19.453125 19.40625 18.992188 20.40625 18.578125 C 21.40625 18.164062 22.425781 17.800781 23.460938 17.484375 C 24.496094 17.167969 25.542969 16.90625 26.605469 16.695312 C 27.664062 16.484375 28.734375 16.324219 29.808594 16.214844 C 30.886719 16.109375 31.964844 16.054688 33.046875 16.054688 L 341.953125 16.054688 C 343.035156 16.054688 344.117188 16.109375 345.191406 16.214844 C 346.269531 16.324219 347.335938 16.484375 348.398438 16.695312 C 349.460938 16.90625 350.507812 17.167969 351.542969 17.484375 C 352.578125 17.800781 353.597656 18.164062 354.59375 18.578125 C 355.59375 18.992188 356.570312 19.453125 357.527344 19.964844 C 358.480469 20.476562 359.40625 21.03125 360.304688 21.632812 C 361.207031 22.234375 362.074219 22.875 362.910156 23.5625 C 363.746094 24.25 364.546875 24.972656 365.3125 25.738281 C 366.078125 26.503906 366.800781 27.304688 367.488281 28.140625 C 368.175781 28.972656 368.820312 29.84375 369.421875 30.742188 C 370.023438 31.640625 370.578125 32.566406 371.089844 33.519531 C 371.597656 34.472656 372.0625 35.449219 372.476562 36.449219 C 372.890625 37.445312 373.253906 38.464844 373.570312 39.496094 C 373.886719 40.53125 374.148438 41.578125 374.359375 42.640625 C 374.574219 43.699219 374.730469 44.769531 374.839844 45.84375 C 374.945312 46.921875 375 48 375 49.082031 L 375 279.609375 C 375 280.691406 374.945312 281.769531 374.839844 282.84375 C 374.730469 283.921875 374.574219 284.988281 374.359375 286.050781 C 374.148438 287.109375 373.886719 288.15625 373.570312 289.191406 C 373.253906 290.226562 372.890625 291.242188 372.476562 292.242188 C 372.0625 293.242188 371.597656 294.214844 371.089844 295.171875 C 370.578125 296.125 370.023438 297.050781 369.421875 297.949219 C 368.820312 298.847656 368.175781 299.714844 367.488281 300.550781 C 366.800781 301.386719 366.078125 302.1875 365.3125 302.953125 C 364.546875 303.714844 363.746094 304.441406 362.910156 305.128906 C 362.074219 305.8125 361.207031 306.457031 360.304688 307.058594 C 359.40625 307.660156 358.480469 308.214844 357.523438 308.726562 C 356.570312 309.234375 355.59375 309.695312 354.59375 310.113281 C 353.597656 310.527344 352.578125 310.890625 351.542969 311.207031 C 350.507812 311.519531 349.460938 311.78125 348.398438 311.996094 C 347.335938 312.207031 346.269531 312.367188 345.191406 312.472656 C 344.117188 312.582031 343.035156 312.632812 341.953125 312.636719 Z M 33.046875 25.710938 C 32.28125 25.710938 31.519531 25.75 30.757812 25.824219 C 29.996094 25.902344 29.238281 26.015625 28.488281 26.164062 C 27.738281 26.3125 26.996094 26.5 26.261719 26.722656 C 25.53125 26.945312 24.808594 27.203125 24.101562 27.496094 C 23.394531 27.789062 22.703125 28.117188 22.03125 28.476562 C 21.355469 28.839844 20.699219 29.230469 20.0625 29.65625 C 19.425781 30.082031 18.8125 30.539062 18.21875 31.023438 C 17.628906 31.507812 17.0625 32.023438 16.519531 32.5625 C 15.980469 33.105469 15.464844 33.671875 14.980469 34.261719 C 14.492188 34.851562 14.039062 35.46875 13.613281 36.101562 C 13.1875 36.738281 12.792969 37.394531 12.433594 38.070312 C 12.070312 38.742188 11.742188 39.433594 11.449219 40.140625 C 11.15625 40.847656 10.898438 41.566406 10.675781 42.300781 C 10.453125 43.03125 10.265625 43.773438 10.117188 44.523438 C 9.964844 45.273438 9.855469 46.027344 9.777344 46.789062 C 9.703125 47.550781 9.664062 48.316406 9.664062 49.082031 L 9.664062 279.609375 C 9.664062 280.375 9.703125 281.136719 9.777344 281.898438 C 9.855469 282.660156 9.964844 283.417969 10.117188 284.167969 C 10.265625 284.917969 10.453125 285.65625 10.675781 286.390625 C 10.898438 287.121094 11.15625 287.839844 11.449219 288.546875 C 11.742188 289.253906 12.070312 289.945312 12.433594 290.621094 C 12.792969 291.296875 13.1875 291.949219 13.613281 292.585938 C 14.039062 293.222656 14.492188 293.835938 14.980469 294.429688 C 15.464844 295.019531 15.980469 295.585938 16.519531 296.125 C 17.0625 296.667969 17.628906 297.179688 18.21875 297.667969 C 18.8125 298.152344 19.425781 298.605469 20.0625 299.03125 C 20.699219 299.457031 21.355469 299.851562 22.03125 300.210938 C 22.703125 300.574219 23.394531 300.898438 24.101562 301.191406 C 24.808594 301.488281 25.53125 301.746094 26.261719 301.96875 C 26.996094 302.191406 27.738281 302.375 28.488281 302.527344 C 29.238281 302.675781 29.996094 302.789062 30.757812 302.863281 C 31.519531 302.941406 32.28125 302.976562 33.046875 302.980469 L 341.953125 302.980469 C 342.71875 302.976562 343.484375 302.941406 344.246094 302.863281 C 345.007812 302.789062 345.761719 302.675781 346.515625 302.527344 C 347.265625 302.375 348.007812 302.191406 348.738281 301.96875 C 349.472656 301.746094 350.191406 301.484375 350.898438 301.191406 C 351.605469 300.898438 352.296875 300.574219 352.972656 300.210938 C 353.648438 299.851562 354.304688 299.457031 354.941406 299.03125 C 355.578125 298.605469 356.191406 298.152344 356.78125 297.667969 C 357.375 297.179688 357.941406 296.667969 358.480469 296.125 C 359.023438 295.585938 359.535156 295.019531 360.023438 294.425781 C 360.507812 293.835938 360.964844 293.222656 361.390625 292.585938 C 361.816406 291.949219 362.207031 291.296875 362.570312 290.621094 C 362.929688 289.945312 363.257812 289.253906 363.550781 288.546875 C 363.84375 287.839844 364.101562 287.121094 364.324219 286.390625 C 364.546875 285.65625 364.734375 284.917969 364.886719 284.167969 C 365.035156 283.417969 365.148438 282.660156 365.222656 281.898438 C 365.300781 281.136719 365.335938 280.375 365.339844 279.609375 L 365.339844 49.082031 C 365.335938 48.316406 365.300781 47.550781 365.222656 46.789062 C 365.148438 46.027344 365.035156 45.273438 364.886719 44.523438 C 364.734375 43.773438 364.546875 43.03125 364.324219 42.300781 C 364.101562 41.566406 363.84375 40.847656 363.550781 40.140625 C 363.257812 39.433594 362.929688 38.742188 362.570312 38.070312 C 362.207031 37.394531 361.816406 36.738281 361.390625 36.101562 C 360.964844 35.46875 360.507812 34.851562 360.023438 34.261719 C 359.535156 33.671875 359.023438 33.105469 358.480469 32.5625 C 357.941406 32.023438 357.375 31.507812 356.78125 31.023438 C 356.191406 30.539062 355.578125 30.082031 354.941406 29.65625 C 354.304688 29.230469 353.648438 28.839844 352.972656 28.476562 C 352.296875 28.117188 351.605469 27.789062 350.898438 27.496094 C 350.191406 27.203125 349.472656 26.945312 348.738281 26.722656 C 348.007812 26.5 347.265625 26.3125 346.515625 26.164062 C 345.761719 26.015625 345.007812 25.902344 344.246094 25.824219 C 343.484375 25.75 342.71875 25.710938 341.953125 25.710938 Z M 33.046875 25.710938 " fill-opacity="1" fill-rule="nonzero"/></g><path fill="#c4e5f2" d="M 33.542969 39.464844 L 340.46875 39.464844 C 341.050781 39.464844 341.632812 39.519531 342.207031 39.632812 C 342.777344 39.75 343.335938 39.917969 343.875 40.140625 C 344.417969 40.363281 344.929688 40.640625 345.417969 40.964844 C 345.902344 41.289062 346.355469 41.65625 346.769531 42.070312 C 347.179688 42.484375 347.550781 42.933594 347.875 43.421875 C 348.199219 43.90625 348.476562 44.417969 348.699219 44.960938 C 348.921875 45.5 349.09375 46.058594 349.207031 46.628906 C 349.320312 47.203125 349.378906 47.78125 349.378906 48.367188 L 349.378906 279.886719 C 349.378906 280.472656 349.320312 281.050781 349.207031 281.625 C 349.09375 282.199219 348.921875 282.753906 348.699219 283.292969 C 348.476562 283.835938 348.199219 284.347656 347.875 284.832031 C 347.550781 285.320312 347.179688 285.769531 346.769531 286.183594 C 346.355469 286.597656 345.902344 286.964844 345.417969 287.289062 C 344.929688 287.617188 344.417969 287.890625 343.875 288.113281 C 343.335938 288.335938 342.777344 288.507812 342.207031 288.621094 C 341.632812 288.734375 341.050781 288.792969 340.46875 288.792969 L 33.542969 288.792969 C 32.957031 288.792969 32.378906 288.734375 31.804688 288.621094 C 31.230469 288.507812 30.675781 288.335938 30.132812 288.113281 C 29.59375 287.890625 29.078125 287.617188 28.59375 287.289062 C 28.105469 286.964844 27.65625 286.597656 27.242188 286.183594 C 26.828125 285.769531 26.460938 285.320312 26.136719 284.832031 C 25.808594 284.347656 25.535156 283.835938 25.3125 283.292969 C 25.085938 282.753906 24.917969 282.199219 24.804688 281.625 C 24.691406 281.050781 24.632812 280.472656 24.632812 279.886719 L 24.632812 48.367188 C 24.632812 47.78125 24.691406 47.203125 24.804688 46.628906 C 24.917969 46.058594 25.085938 45.5 25.3125 44.960938 C 25.535156 44.417969 25.808594 43.90625 26.136719 43.421875 C 26.460938 42.933594 26.828125 42.484375 27.242188 42.070312 C 27.65625 41.65625 28.105469 41.289062 28.59375 40.964844 C 29.078125 40.640625 29.59375 40.363281 30.132812 40.140625 C 30.675781 39.917969 31.230469 39.75 31.804688 39.632812 C 32.378906 39.519531 32.957031 39.464844 33.542969 39.464844 Z M 33.542969 39.464844 " fill-opacity="1" fill-rule="nonzero"/><path fill="#91d2e7" d="M 29.464844 39.464844 L 86.015625 39.464844 L 86.015625 288.019531 L 29.464844 288.019531 Z M 29.464844 39.464844 " fill-opacity="1" fill-rule="nonzero"/><path fill="#231f20" d="M 340.46875 293.617188 L 33.542969 293.617188 C 32.640625 293.617188 31.746094 293.527344 30.863281 293.351562 C 29.980469 293.175781 29.121094 292.914062 28.285156 292.570312 C 27.453125 292.222656 26.660156 291.800781 25.910156 291.300781 C 25.160156 290.796875 24.46875 290.230469 23.832031 289.589844 C 23.191406 288.953125 22.621094 288.261719 22.121094 287.511719 C 21.621094 286.761719 21.195312 285.972656 20.851562 285.136719 C 20.503906 284.304688 20.246094 283.445312 20.066406 282.5625 C 19.890625 281.679688 19.800781 280.785156 19.800781 279.886719 L 19.800781 48.367188 C 19.800781 47.464844 19.890625 46.574219 20.066406 45.6875 C 20.246094 44.804688 20.503906 43.945312 20.851562 43.113281 C 21.195312 42.28125 21.621094 41.492188 22.121094 40.742188 C 22.621094 39.992188 23.191406 39.296875 23.832031 38.660156 C 24.46875 38.023438 25.160156 37.453125 25.910156 36.953125 C 26.660156 36.453125 27.453125 36.03125 28.285156 35.683594 C 29.121094 35.339844 29.980469 35.078125 30.863281 34.902344 C 31.746094 34.722656 32.640625 34.636719 33.542969 34.632812 L 340.46875 34.632812 C 341.371094 34.636719 342.261719 34.722656 343.148438 34.902344 C 344.03125 35.078125 344.890625 35.339844 345.722656 35.683594 C 346.558594 36.03125 347.347656 36.453125 348.097656 36.953125 C 348.847656 37.453125 349.542969 38.023438 350.179688 38.660156 C 350.816406 39.300781 351.386719 39.992188 351.890625 40.742188 C 352.390625 41.492188 352.8125 42.28125 353.160156 43.113281 C 353.503906 43.949219 353.765625 44.804688 353.941406 45.691406 C 354.121094 46.574219 354.207031 47.464844 354.210938 48.367188 L 354.210938 279.886719 C 354.207031 280.789062 354.121094 281.679688 353.941406 282.5625 C 353.765625 283.449219 353.503906 284.304688 353.160156 285.140625 C 352.8125 285.972656 352.390625 286.761719 351.886719 287.511719 C 351.386719 288.261719 350.816406 288.953125 350.179688 289.59375 C 349.542969 290.230469 348.847656 290.796875 348.097656 291.300781 C 347.347656 291.800781 346.558594 292.222656 345.722656 292.570312 C 344.890625 292.914062 344.03125 293.175781 343.148438 293.351562 C 342.261719 293.527344 341.367188 293.617188 340.46875 293.617188 Z M 33.542969 44.292969 C 33.277344 44.292969 33.011719 44.316406 32.746094 44.371094 C 32.484375 44.421875 32.230469 44.5 31.984375 44.601562 C 31.734375 44.707031 31.5 44.832031 31.277344 44.980469 C 31.054688 45.128906 30.851562 45.296875 30.660156 45.488281 C 30.472656 45.675781 30.300781 45.882812 30.152344 46.105469 C 30.003906 46.328125 29.878906 46.5625 29.777344 46.808594 C 29.671875 47.054688 29.597656 47.308594 29.542969 47.574219 C 29.492188 47.835938 29.464844 48.101562 29.464844 48.367188 L 29.464844 279.886719 C 29.464844 280.152344 29.492188 280.417969 29.542969 280.679688 C 29.597656 280.945312 29.671875 281.199219 29.777344 281.445312 C 29.878906 281.691406 30.003906 281.925781 30.152344 282.148438 C 30.300781 282.371094 30.472656 282.578125 30.660156 282.765625 C 30.851562 282.957031 31.054688 283.125 31.277344 283.273438 C 31.5 283.421875 31.734375 283.546875 31.984375 283.648438 C 32.230469 283.753906 32.484375 283.832031 32.746094 283.882812 C 33.011719 283.933594 33.277344 283.960938 33.542969 283.960938 L 340.46875 283.960938 C 340.734375 283.960938 341 283.933594 341.261719 283.882812 C 341.527344 283.832031 341.78125 283.753906 342.027344 283.648438 C 342.277344 283.546875 342.511719 283.421875 342.734375 283.273438 C 342.957031 283.125 343.160156 282.957031 343.351562 282.765625 C 343.539062 282.578125 343.710938 282.371094 343.859375 282.148438 C 344.007812 281.925781 344.132812 281.691406 344.234375 281.445312 C 344.335938 281.195312 344.414062 280.941406 344.46875 280.679688 C 344.519531 280.417969 344.546875 280.152344 344.546875 279.886719 L 344.546875 48.367188 C 344.546875 48.101562 344.519531 47.835938 344.46875 47.574219 C 344.414062 47.308594 344.335938 47.054688 344.234375 46.808594 C 344.132812 46.5625 344.007812 46.328125 343.859375 46.105469 C 343.710938 45.882812 343.539062 45.675781 343.351562 45.488281 C 343.160156 45.296875 342.957031 45.128906 342.734375 44.980469 C 342.511719 44.832031 342.277344 44.707031 342.027344 44.601562 C 341.78125 44.5 341.527344 44.421875 341.261719 44.371094 C 341 44.316406 340.734375 44.292969 340.46875 44.292969 Z M 33.542969 44.292969 " fill-opacity="1" fill-rule="nonzero"/><path fill="#231f20" d="M 84.996094 159.28125 C 84.679688 159.28125 84.367188 159.25 84.054688 159.1875 C 83.742188 159.125 83.441406 159.03125 83.148438 158.910156 C 82.855469 158.789062 82.578125 158.640625 82.3125 158.464844 C 82.050781 158.289062 81.804688 158.089844 81.582031 157.863281 C 81.355469 157.640625 81.15625 157.398438 80.980469 157.132812 C 80.804688 156.871094 80.65625 156.589844 80.535156 156.296875 C 80.414062 156.003906 80.320312 155.703125 80.257812 155.394531 C 80.195312 155.082031 80.164062 154.769531 80.164062 154.449219 L 80.164062 39.464844 C 80.164062 39.144531 80.195312 38.832031 80.257812 38.519531 C 80.320312 38.210938 80.414062 37.90625 80.535156 37.617188 C 80.65625 37.324219 80.804688 37.042969 80.980469 36.78125 C 81.15625 36.515625 81.355469 36.273438 81.582031 36.050781 C 81.804688 35.824219 82.050781 35.625 82.3125 35.449219 C 82.578125 35.273438 82.855469 35.125 83.148438 35.003906 C 83.441406 34.882812 83.742188 34.789062 84.054688 34.726562 C 84.367188 34.664062 84.679688 34.632812 84.996094 34.632812 C 85.316406 34.632812 85.628906 34.664062 85.941406 34.726562 C 86.25 34.789062 86.554688 34.882812 86.847656 35.003906 C 87.140625 35.125 87.417969 35.273438 87.683594 35.449219 C 87.945312 35.625 88.191406 35.824219 88.414062 36.050781 C 88.636719 36.273438 88.839844 36.515625 89.015625 36.78125 C 89.191406 37.042969 89.339844 37.324219 89.460938 37.617188 C 89.582031 37.90625 89.675781 38.210938 89.734375 38.519531 C 89.796875 38.832031 89.828125 39.144531 89.828125 39.464844 L 89.828125 154.449219 C 89.828125 154.769531 89.796875 155.082031 89.734375 155.394531 C 89.675781 155.703125 89.582031 156.003906 89.460938 156.296875 C 89.339844 156.589844 89.191406 156.871094 89.015625 157.132812 C 88.839844 157.398438 88.636719 157.640625 88.414062 157.863281 C 88.191406 158.089844 87.945312 158.289062 87.683594 158.464844 C 87.417969 158.640625 87.140625 158.789062 86.847656 158.910156 C 86.554688 159.03125 86.25 159.125 85.941406 159.1875 C 85.628906 159.25 85.316406 159.28125 84.996094 159.28125 Z M 84.996094 159.28125 " fill-opacity="1" fill-rule="nonzero"/><path fill="#231f20" d="M 84.996094 293.015625 C 84.679688 293.015625 84.367188 292.984375 84.054688 292.921875 C 83.742188 292.859375 83.441406 292.769531 83.148438 292.648438 C 82.855469 292.527344 82.578125 292.378906 82.3125 292.199219 C 82.050781 292.023438 81.804688 291.824219 81.582031 291.601562 C 81.355469 291.375 81.15625 291.132812 80.980469 290.867188 C 80.804688 290.605469 80.65625 290.328125 80.535156 290.035156 C 80.414062 289.742188 80.320312 289.441406 80.257812 289.128906 C 80.195312 288.816406 80.164062 288.503906 80.164062 288.1875 L 80.164062 192.042969 C 80.164062 191.726562 80.195312 191.414062 80.257812 191.101562 C 80.320312 190.789062 80.414062 190.488281 80.535156 190.195312 C 80.65625 189.902344 80.804688 189.625 80.980469 189.363281 C 81.15625 189.097656 81.355469 188.855469 81.582031 188.628906 C 81.804688 188.40625 82.050781 188.207031 82.3125 188.03125 C 82.578125 187.851562 82.855469 187.703125 83.148438 187.582031 C 83.441406 187.460938 83.742188 187.371094 84.054688 187.308594 C 84.367188 187.246094 84.679688 187.214844 84.996094 187.214844 C 85.316406 187.214844 85.628906 187.246094 85.941406 187.308594 C 86.25 187.371094 86.554688 187.460938 86.847656 187.582031 C 87.140625 187.703125 87.417969 187.851562 87.683594 188.03125 C 87.945312 188.207031 88.191406 188.40625 88.414062 188.628906 C 88.636719 188.855469 88.839844 189.097656 89.015625 189.363281 C 89.191406 189.625 89.339844 189.902344 89.460938 190.195312 C 89.582031 190.488281 89.675781 190.789062 89.734375 191.101562 C 89.796875 191.414062 89.828125 191.726562 89.828125 192.042969 L 89.828125 288.1875 C 89.828125 288.503906 89.796875 288.816406 89.734375 289.128906 C 89.675781 289.441406 89.582031 289.742188 89.460938 290.035156 C 89.339844 290.328125 89.191406 290.605469 89.015625 290.867188 C 88.839844 291.132812 88.636719 291.375 88.414062 291.601562 C 88.191406 291.824219 87.945312 292.023438 87.683594 292.203125 C 87.417969 292.378906 87.140625 292.527344 86.847656 292.648438 C 86.554688 292.769531 86.25 292.859375 85.941406 292.921875 C 85.628906 292.984375 85.316406 293.015625 84.996094 293.015625 Z M 84.996094 293.015625 " fill-opacity="1" fill-rule="nonzero"/><path fill="#231f20" d="M 56.316406 226.667969 C 56 226.667969 55.683594 226.636719 55.371094 226.574219 C 55.0625 226.511719 54.757812 226.421875 54.464844 226.300781 C 54.171875 226.179688 53.894531 226.03125 53.632812 225.855469 C 53.367188 225.675781 53.125 225.476562 52.898438 225.253906 C 52.675781 225.027344 52.472656 224.785156 52.296875 224.523438 C 52.121094 224.257812 51.972656 223.980469 51.851562 223.6875 C 51.730469 223.394531 51.636719 223.09375 51.578125 222.78125 C 51.515625 222.46875 51.484375 222.15625 51.484375 221.839844 L 51.484375 106.851562 C 51.484375 106.535156 51.515625 106.21875 51.578125 105.910156 C 51.636719 105.597656 51.730469 105.296875 51.851562 105.003906 C 51.972656 104.710938 52.121094 104.433594 52.296875 104.167969 C 52.472656 103.90625 52.675781 103.660156 52.898438 103.4375 C 53.125 103.210938 53.367188 103.011719 53.632812 102.835938 C 53.894531 102.660156 54.171875 102.511719 54.464844 102.390625 C 54.757812 102.269531 55.0625 102.175781 55.371094 102.117188 C 55.683594 102.054688 56 102.023438 56.316406 102.023438 C 56.632812 102.023438 56.945312 102.054688 57.257812 102.117188 C 57.570312 102.175781 57.871094 102.269531 58.164062 102.390625 C 58.457031 102.511719 58.734375 102.660156 59 102.835938 C 59.261719 103.011719 59.507812 103.210938 59.730469 103.4375 C 59.957031 103.660156 60.15625 103.90625 60.332031 104.167969 C 60.507812 104.433594 60.65625 104.710938 60.777344 105.003906 C 60.902344 105.296875 60.992188 105.597656 61.054688 105.910156 C 61.117188 106.21875 61.148438 106.535156 61.148438 106.851562 L 61.148438 221.839844 C 61.148438 222.15625 61.117188 222.46875 61.054688 222.78125 C 60.992188 223.09375 60.902344 223.394531 60.777344 223.6875 C 60.65625 223.980469 60.507812 224.257812 60.332031 224.523438 C 60.15625 224.785156 59.957031 225.027344 59.730469 225.253906 C 59.507812 225.476562 59.261719 225.675781 59 225.855469 C 58.734375 226.03125 58.457031 226.179688 58.164062 226.300781 C 57.871094 226.421875 57.570312 226.511719 57.257812 226.574219 C 56.945312 226.636719 56.632812 226.667969 56.316406 226.667969 Z M 56.316406 226.667969 " fill-opacity="1" fill-rule="nonzero"/><path fill="#f8f5bb" d="M 267.984375 166.117188 C 267.984375 167.441406 267.953125 168.765625 267.886719 170.089844 C 267.824219 171.414062 267.726562 172.734375 267.597656 174.050781 C 267.464844 175.367188 267.304688 176.683594 267.109375 177.992188 C 266.914062 179.304688 266.6875 180.605469 266.429688 181.90625 C 266.171875 183.207031 265.878906 184.496094 265.558594 185.78125 C 265.238281 187.066406 264.882812 188.34375 264.5 189.609375 C 264.113281 190.878906 263.699219 192.132812 263.25 193.382812 C 262.804688 194.628906 262.328125 195.863281 261.820312 197.085938 C 261.3125 198.3125 260.777344 199.519531 260.210938 200.71875 C 259.644531 201.914062 259.046875 203.097656 258.421875 204.265625 C 257.800781 205.433594 257.144531 206.585938 256.464844 207.722656 C 255.78125 208.859375 255.074219 209.976562 254.339844 211.078125 C 253.601562 212.179688 252.839844 213.261719 252.050781 214.324219 C 251.261719 215.390625 250.445312 216.433594 249.605469 217.457031 C 248.761719 218.480469 247.898438 219.484375 247.007812 220.464844 C 246.117188 221.445312 245.203125 222.40625 244.265625 223.339844 C 243.328125 224.277344 242.371094 225.191406 241.386719 226.082031 C 240.40625 226.96875 239.402344 227.835938 238.378906 228.675781 C 237.355469 229.515625 236.308594 230.328125 235.246094 231.117188 C 234.179688 231.90625 233.097656 232.667969 231.996094 233.40625 C 230.894531 234.140625 229.773438 234.847656 228.636719 235.53125 C 227.5 236.210938 226.347656 236.863281 225.179688 237.488281 C 224.011719 238.113281 222.828125 238.707031 221.628906 239.273438 C 220.429688 239.839844 219.21875 240.375 217.996094 240.882812 C 216.769531 241.390625 215.535156 241.867188 214.285156 242.3125 C 213.039062 242.757812 211.78125 243.175781 210.511719 243.558594 C 209.246094 243.945312 207.96875 244.296875 206.683594 244.617188 C 205.394531 244.941406 204.101562 245.230469 202.804688 245.488281 C 201.503906 245.746094 200.199219 245.972656 198.886719 246.167969 C 197.578125 246.363281 196.261719 246.523438 194.941406 246.652344 C 193.625 246.785156 192.300781 246.882812 190.980469 246.945312 C 189.65625 247.011719 188.332031 247.042969 187.003906 247.042969 C 185.679688 247.042969 184.355469 247.011719 183.03125 246.945312 C 181.707031 246.882812 180.386719 246.785156 179.066406 246.652344 C 177.75 246.523438 176.433594 246.363281 175.121094 246.167969 C 173.8125 245.972656 172.507812 245.746094 171.207031 245.488281 C 169.90625 245.230469 168.613281 244.941406 167.328125 244.617188 C 166.042969 244.296875 164.765625 243.945312 163.496094 243.558594 C 162.230469 243.175781 160.972656 242.757812 159.722656 242.3125 C 158.476562 241.867188 157.238281 241.390625 156.015625 240.882812 C 154.789062 240.375 153.578125 239.839844 152.382812 239.273438 C 151.183594 238.707031 150 238.113281 148.832031 237.488281 C 147.664062 236.863281 146.507812 236.210938 145.371094 235.53125 C 144.234375 234.847656 143.117188 234.140625 142.015625 233.40625 C 140.914062 232.667969 139.828125 231.90625 138.765625 231.117188 C 137.699219 230.328125 136.65625 229.515625 135.632812 228.675781 C 134.605469 227.835938 133.605469 226.96875 132.621094 226.082031 C 131.640625 225.191406 130.679688 224.277344 129.742188 223.339844 C 128.804688 222.40625 127.890625 221.445312 127.003906 220.464844 C 126.113281 219.484375 125.246094 218.480469 124.40625 217.457031 C 123.566406 216.433594 122.75 215.390625 121.960938 214.324219 C 121.171875 213.261719 120.410156 212.179688 119.671875 211.078125 C 118.9375 209.976562 118.226562 208.859375 117.546875 207.722656 C 116.863281 206.585938 116.210938 205.433594 115.585938 204.265625 C 114.960938 203.097656 114.367188 201.914062 113.800781 200.71875 C 113.234375 199.519531 112.695312 198.3125 112.1875 197.085938 C 111.679688 195.863281 111.203125 194.628906 110.757812 193.382812 C 110.3125 192.132812 109.894531 190.878906 109.511719 189.609375 C 109.125 188.34375 108.773438 187.066406 108.453125 185.78125 C 108.128906 184.496094 107.839844 183.207031 107.582031 181.90625 C 107.320312 180.605469 107.09375 179.304688 106.902344 177.992188 C 106.707031 176.683594 106.542969 175.367188 106.414062 174.050781 C 106.285156 172.734375 106.1875 171.414062 106.121094 170.089844 C 106.058594 168.765625 106.023438 167.441406 106.023438 166.117188 C 106.023438 164.792969 106.058594 163.46875 106.121094 162.148438 C 106.1875 160.824219 106.285156 159.503906 106.414062 158.1875 C 106.542969 156.867188 106.707031 155.554688 106.902344 154.246094 C 107.09375 152.933594 107.320312 151.628906 107.582031 150.332031 C 107.839844 149.03125 108.128906 147.738281 108.453125 146.457031 C 108.773438 145.171875 109.125 143.894531 109.511719 142.628906 C 109.894531 141.359375 110.3125 140.101562 110.757812 138.855469 C 111.203125 137.609375 111.679688 136.375 112.1875 135.148438 C 112.695312 133.925781 113.234375 132.714844 113.800781 131.519531 C 114.367188 130.320312 114.960938 129.136719 115.585938 127.96875 C 116.210938 126.800781 116.863281 125.652344 117.546875 124.515625 C 118.226562 123.378906 118.9375 122.261719 119.671875 121.160156 C 120.410156 120.058594 121.171875 118.976562 121.960938 117.910156 C 122.75 116.847656 123.566406 115.804688 124.40625 114.78125 C 125.246094 113.757812 126.113281 112.753906 127.003906 111.773438 C 127.890625 110.792969 128.804688 109.832031 129.742188 108.894531 C 130.679688 107.960938 131.640625 107.046875 132.621094 106.15625 C 133.605469 105.265625 134.605469 104.402344 135.632812 103.5625 C 136.65625 102.722656 137.699219 101.90625 138.765625 101.117188 C 139.828125 100.328125 140.914062 99.566406 142.015625 98.832031 C 143.117188 98.097656 144.234375 97.386719 145.371094 96.707031 C 146.507812 96.027344 147.664062 95.375 148.832031 94.75 C 150 94.125 151.183594 93.527344 152.382812 92.964844 C 153.578125 92.398438 154.789062 91.859375 156.015625 91.351562 C 157.238281 90.847656 158.476562 90.371094 159.722656 89.921875 C 160.972656 89.476562 162.230469 89.0625 163.496094 88.679688 C 164.765625 88.292969 166.042969 87.941406 167.328125 87.617188 C 168.613281 87.296875 169.90625 87.007812 171.207031 86.75 C 172.507812 86.488281 173.8125 86.261719 175.121094 86.070312 C 176.433594 85.875 177.75 85.710938 179.066406 85.582031 C 180.386719 85.453125 181.707031 85.355469 183.03125 85.289062 C 184.355469 85.226562 185.679688 85.191406 187.003906 85.191406 C 188.332031 85.191406 189.65625 85.226562 190.980469 85.289062 C 192.300781 85.355469 193.625 85.453125 194.941406 85.582031 C 196.261719 85.710938 197.578125 85.875 198.886719 86.070312 C 200.199219 86.261719 201.503906 86.488281 202.804688 86.75 C 204.101562 87.007812 205.394531 87.296875 206.683594 87.617188 C 207.96875 87.941406 209.246094 88.292969 210.511719 88.679688 C 211.78125 89.0625 213.039062 89.476562 214.285156 89.921875 C 215.535156 90.371094 216.769531 90.847656 217.996094 91.351562 C 219.21875 91.859375 220.429688 92.398438 221.628906 92.964844 C 222.828125 93.527344 224.011719 94.125 225.179688 94.75 C 226.347656 95.375 227.5 96.027344 228.636719 96.707031 C 229.773438 97.386719 230.894531 98.097656 231.996094 98.832031 C 233.097656 99.566406 234.179688 100.328125 235.246094 101.117188 C 236.308594 101.90625 237.355469 102.722656 238.378906 103.5625 C 239.402344 104.402344 240.40625 105.265625 241.386719 106.15625 C 242.371094 107.046875 243.328125 107.960938 244.265625 108.894531 C 245.203125 109.832031 246.117188 110.792969 247.007812 111.773438 C 247.898438 112.753906 248.761719 113.757812 249.605469 114.78125 C 250.445312 115.804688 251.261719 116.847656 252.050781 117.910156 C 252.839844 118.976562 253.601562 120.058594 254.339844 121.160156 C 255.074219 122.261719 255.78125 123.378906 256.464844 124.515625 C 257.144531 125.652344 257.796875 126.800781 258.421875 127.96875 C 259.046875 129.136719 259.644531 130.320312 260.210938 131.519531 C 260.777344 132.714844 261.3125 133.925781 261.820312 135.148438 C 262.328125 136.375 262.804688 137.609375 263.25 138.855469 C 263.699219 140.101562 264.113281 141.359375 264.5 142.628906 C 264.882812 143.894531 265.238281 145.171875 265.558594 146.457031 C 265.878906 147.738281 266.171875 149.03125 266.429688 150.332031 C 266.6875 151.628906 266.914062 152.933594 267.109375 154.246094 C 267.304688 155.554688 267.464844 156.867188 267.597656 158.1875 C 267.726562 159.503906 267.824219 160.824219 267.886719 162.148438 C 267.953125 163.46875 267.984375 164.792969 267.984375 166.117188 Z M 267.984375 166.117188 " fill-opacity="1" fill-rule="nonzero"/><path fill="#c4e5f2" d="M 130.664062 156.925781 C 136.816406 116.488281 174.898438 88.074219 218.5625 89.203125 C 217.195312 88.625 215.8125 88.082031 214.414062 87.578125 C 213.015625 87.078125 211.601562 86.613281 210.179688 86.1875 C 208.753906 85.761719 207.320312 85.378906 205.875 85.03125 C 204.429688 84.6875 202.976562 84.378906 201.511719 84.113281 C 200.050781 83.847656 198.582031 83.621094 197.109375 83.4375 C 195.632812 83.25 194.15625 83.105469 192.671875 83.003906 C 191.1875 82.898438 189.703125 82.835938 188.21875 82.8125 C 186.734375 82.792969 185.246094 82.808594 183.761719 82.871094 C 182.277344 82.929688 180.792969 83.027344 179.316406 83.171875 C 177.835938 83.3125 176.359375 83.492188 174.890625 83.714844 C 173.421875 83.9375 171.960938 84.199219 170.503906 84.5 C 169.050781 84.804688 167.605469 85.148438 166.167969 85.527344 C 164.730469 85.910156 163.304688 86.332031 161.894531 86.792969 C 160.480469 87.253906 159.082031 87.753906 157.695312 88.289062 C 156.308594 88.828125 154.941406 89.402344 153.585938 90.015625 C 152.234375 90.628906 150.898438 91.277344 149.578125 91.964844 C 148.261719 92.652344 146.960938 93.371094 145.683594 94.128906 C 144.40625 94.886719 143.148438 95.679688 141.914062 96.507812 C 140.679688 97.335938 139.46875 98.195312 138.28125 99.089844 C 137.09375 99.980469 135.933594 100.90625 134.796875 101.863281 C 133.660156 102.824219 132.550781 103.808594 131.46875 104.828125 C 130.386719 105.847656 129.335938 106.894531 128.3125 107.972656 C 127.285156 109.046875 126.292969 110.152344 125.328125 111.28125 C 124.367188 112.414062 123.433594 113.570312 122.535156 114.753906 C 121.636719 115.933594 120.769531 117.140625 119.9375 118.371094 C 119.101562 119.601562 118.304688 120.851562 117.539062 122.125 C 116.777344 123.402344 116.046875 124.695312 115.355469 126.007812 C 114.660156 127.324219 114.003906 128.65625 113.386719 130.003906 C 112.765625 131.355469 112.183594 132.722656 111.640625 134.101562 C 111.097656 135.484375 110.589844 136.882812 110.125 138.292969 C 109.65625 139.699219 109.226562 141.121094 108.839844 142.554688 C 108.449219 143.988281 108.101562 145.433594 107.792969 146.886719 C 107.480469 148.339844 107.210938 149.796875 106.984375 151.265625 C 106.753906 152.734375 106.566406 154.207031 106.417969 155.683594 C 106.269531 157.160156 106.164062 158.644531 106.097656 160.125 C 106.03125 161.609375 106.003906 163.09375 106.019531 164.578125 C 106.035156 166.066406 106.09375 167.550781 106.1875 169.03125 C 106.285156 170.511719 106.425781 171.992188 106.601562 173.464844 C 106.78125 174.941406 107 176.410156 107.261719 177.871094 C 107.519531 179.332031 107.820312 180.789062 108.160156 182.234375 C 108.5 183.679688 108.878906 185.117188 109.296875 186.539062 C 109.714844 187.964844 110.171875 189.378906 110.667969 190.777344 C 111.167969 192.179688 111.699219 193.5625 112.273438 194.933594 C 112.847656 196.304688 113.457031 197.65625 114.105469 198.996094 C 114.75 200.332031 115.4375 201.648438 116.15625 202.949219 C 116.875 204.25 117.632812 205.527344 118.421875 206.785156 C 119.210938 208.042969 120.035156 209.277344 120.894531 210.488281 C 121.753906 211.703125 122.644531 212.890625 123.570312 214.054688 C 124.492188 215.21875 125.449219 216.355469 126.433594 217.464844 C 127.421875 218.574219 128.4375 219.660156 129.484375 220.714844 C 130.53125 221.769531 131.605469 222.792969 132.707031 223.789062 C 133.8125 224.785156 134.941406 225.75 136.097656 226.683594 C 137.253906 227.617188 138.433594 228.519531 139.636719 229.386719 C 140.84375 230.253906 142.074219 231.089844 143.324219 231.890625 C 144.574219 232.691406 145.847656 233.457031 147.140625 234.191406 C 148.4375 234.921875 149.75 235.617188 151.082031 236.273438 C 152.414062 236.933594 153.761719 237.554688 155.128906 238.140625 C 156.496094 238.722656 157.875 239.269531 159.273438 239.777344 C 160.667969 240.289062 162.078125 240.757812 163.5 241.1875 C 164.921875 241.621094 166.355469 242.011719 167.800781 242.363281 C 169.242188 242.714844 170.695312 243.027344 172.15625 243.300781 C 173.617188 243.574219 175.085938 243.804688 176.558594 243.996094 C 178.035156 244.1875 179.511719 244.339844 180.992188 244.449219 C 182.476562 244.558594 183.960938 244.628906 185.445312 244.65625 C 148.519531 230.152344 124.964844 194.398438 130.664062 156.925781 Z M 130.664062 156.925781 " fill-opacity="1" fill-rule="nonzero"/><path fill="#231f20" d="M 187.003906 251.871094 C 139.6875 251.871094 101.191406 213.402344 101.191406 166.117188 C 101.191406 118.832031 139.6875 80.363281 187.003906 80.363281 C 234.324219 80.363281 272.816406 118.835938 272.816406 166.117188 C 272.816406 213.402344 234.324219 251.871094 187.003906 251.871094 Z M 187.003906 90.019531 C 185.757812 90.019531 184.511719 90.050781 183.269531 90.113281 C 182.023438 90.171875 180.78125 90.265625 179.542969 90.386719 C 178.300781 90.507812 177.0625 90.660156 175.832031 90.84375 C 174.597656 91.027344 173.371094 91.238281 172.148438 91.484375 C 170.925781 91.726562 169.710938 92 168.503906 92.300781 C 167.292969 92.605469 166.09375 92.9375 164.898438 93.296875 C 163.707031 93.660156 162.523438 94.050781 161.351562 94.46875 C 160.175781 94.890625 159.015625 95.335938 157.863281 95.8125 C 156.710938 96.289062 155.574219 96.792969 154.445312 97.328125 C 153.320312 97.859375 152.207031 98.417969 151.109375 99.007812 C 150.007812 99.59375 148.925781 100.207031 147.855469 100.847656 C 146.785156 101.488281 145.734375 102.152344 144.699219 102.84375 C 143.660156 103.539062 142.644531 104.253906 141.640625 104.996094 C 140.640625 105.738281 139.660156 106.503906 138.695312 107.292969 C 137.734375 108.085938 136.789062 108.898438 135.867188 109.734375 C 134.941406 110.570312 134.039062 111.429688 133.160156 112.308594 C 132.277344 113.191406 131.417969 114.089844 130.582031 115.015625 C 129.746094 115.9375 128.929688 116.878906 128.140625 117.84375 C 127.347656 118.804688 126.582031 119.785156 125.839844 120.789062 C 125.097656 121.789062 124.378906 122.804688 123.6875 123.839844 C 122.996094 124.875 122.328125 125.929688 121.6875 126.996094 C 121.046875 128.066406 120.433594 129.148438 119.847656 130.246094 C 119.257812 131.34375 118.699219 132.457031 118.167969 133.582031 C 117.632812 134.707031 117.128906 135.847656 116.652344 136.996094 C 116.175781 138.148438 115.726562 139.308594 115.304688 140.480469 C 114.886719 141.65625 114.496094 142.835938 114.132812 144.027344 C 113.773438 145.21875 113.441406 146.421875 113.136719 147.628906 C 112.835938 148.835938 112.5625 150.050781 112.316406 151.273438 C 112.074219 152.492188 111.863281 153.722656 111.679688 154.953125 C 111.496094 156.183594 111.34375 157.421875 111.222656 158.660156 C 111.097656 159.898438 111.007812 161.140625 110.945312 162.382812 C 110.886719 163.628906 110.855469 164.875 110.855469 166.117188 C 110.855469 167.363281 110.886719 168.609375 110.945312 169.851562 C 111.007812 171.097656 111.097656 172.339844 111.222656 173.578125 C 111.34375 174.816406 111.496094 176.050781 111.679688 177.285156 C 111.863281 178.515625 112.074219 179.742188 112.316406 180.964844 C 112.5625 182.1875 112.835938 183.402344 113.136719 184.609375 C 113.441406 185.816406 113.773438 187.015625 114.132812 188.207031 C 114.496094 189.398438 114.886719 190.582031 115.304688 191.753906 C 115.726562 192.925781 116.175781 194.089844 116.652344 195.238281 C 117.128906 196.390625 117.632812 197.527344 118.164062 198.65625 C 118.699219 199.78125 119.257812 200.890625 119.847656 201.992188 C 120.433594 203.089844 121.046875 204.171875 121.6875 205.242188 C 122.328125 206.308594 122.996094 207.359375 123.6875 208.394531 C 124.378906 209.429688 125.097656 210.449219 125.839844 211.449219 C 126.582031 212.449219 127.347656 213.433594 128.140625 214.394531 C 128.929688 215.355469 129.746094 216.300781 130.582031 217.222656 C 131.417969 218.144531 132.277344 219.046875 133.160156 219.925781 C 134.039062 220.808594 134.941406 221.667969 135.867188 222.503906 C 136.789062 223.339844 137.730469 224.152344 138.695312 224.941406 C 139.660156 225.734375 140.640625 226.5 141.640625 227.242188 C 142.644531 227.984375 143.660156 228.699219 144.699219 229.390625 C 145.734375 230.082031 146.785156 230.75 147.855469 231.390625 C 148.925781 232.03125 150.007812 232.644531 151.109375 233.230469 C 152.207031 233.816406 153.320312 234.378906 154.445312 234.910156 C 155.574219 235.441406 156.710938 235.945312 157.863281 236.421875 C 159.015625 236.898438 160.175781 237.347656 161.351562 237.769531 C 162.523438 238.1875 163.707031 238.578125 164.898438 238.9375 C 166.09375 239.300781 167.292969 239.632812 168.5 239.9375 C 169.710938 240.238281 170.925781 240.511719 172.148438 240.753906 C 173.371094 240.996094 174.597656 241.210938 175.832031 241.390625 C 177.0625 241.574219 178.300781 241.726562 179.539062 241.851562 C 180.78125 241.972656 182.023438 242.0625 183.269531 242.125 C 184.511719 242.1875 185.757812 242.214844 187.003906 242.214844 C 188.25 242.214844 189.496094 242.1875 190.742188 242.125 C 191.984375 242.0625 193.226562 241.972656 194.46875 241.851562 C 195.707031 241.726562 196.945312 241.574219 198.179688 241.390625 C 199.410156 241.210938 200.636719 240.996094 201.859375 240.753906 C 203.082031 240.511719 204.296875 240.238281 205.507812 239.9375 C 206.714844 239.632812 207.917969 239.300781 209.109375 238.941406 C 210.300781 238.578125 211.484375 238.1875 212.660156 237.769531 C 213.832031 237.347656 214.996094 236.898438 216.144531 236.421875 C 217.296875 235.945312 218.4375 235.441406 219.5625 234.910156 C 220.6875 234.378906 221.800781 233.816406 222.902344 233.230469 C 224 232.644531 225.085938 232.03125 226.152344 231.390625 C 227.222656 230.75 228.273438 230.082031 229.3125 229.390625 C 230.347656 228.699219 231.367188 227.984375 232.367188 227.242188 C 233.367188 226.5 234.351562 225.734375 235.3125 224.941406 C 236.277344 224.152344 237.21875 223.339844 238.144531 222.503906 C 239.066406 221.667969 239.96875 220.808594 240.851562 219.929688 C 241.730469 219.046875 242.589844 218.144531 243.425781 217.222656 C 244.265625 216.300781 245.078125 215.355469 245.867188 214.394531 C 246.660156 213.433594 247.425781 212.449219 248.167969 211.449219 C 248.910156 210.449219 249.628906 209.433594 250.320312 208.394531 C 251.011719 207.359375 251.679688 206.308594 252.320312 205.242188 C 252.960938 204.171875 253.574219 203.089844 254.164062 201.992188 C 254.75 200.890625 255.308594 199.78125 255.84375 198.65625 C 256.375 197.527344 256.878906 196.390625 257.359375 195.238281 C 257.835938 194.089844 258.28125 192.925781 258.703125 191.753906 C 259.121094 190.582031 259.511719 189.398438 259.875 188.207031 C 260.238281 187.015625 260.570312 185.816406 260.871094 184.609375 C 261.175781 183.402344 261.449219 182.1875 261.691406 180.964844 C 261.933594 179.742188 262.148438 178.515625 262.328125 177.285156 C 262.511719 176.050781 262.664062 174.816406 262.789062 173.578125 C 262.910156 172.339844 263 171.097656 263.0625 169.851562 C 263.125 168.609375 263.152344 167.363281 263.152344 166.117188 C 263.152344 164.875 263.121094 163.628906 263.058594 162.386719 C 262.996094 161.140625 262.902344 159.902344 262.78125 158.664062 C 262.65625 157.421875 262.503906 156.1875 262.320312 154.957031 C 262.136719 153.726562 261.921875 152.5 261.675781 151.277344 C 261.433594 150.058594 261.160156 148.84375 260.855469 147.636719 C 260.550781 146.429688 260.21875 145.230469 259.855469 144.039062 C 259.492188 142.847656 259.101562 141.664062 258.679688 140.492188 C 258.261719 139.320312 257.8125 138.160156 257.335938 137.011719 C 256.855469 135.859375 256.351562 134.722656 255.820312 133.597656 C 255.285156 132.472656 254.726562 131.359375 254.136719 130.261719 C 253.550781 129.164062 252.933594 128.082031 252.292969 127.015625 C 251.652344 125.949219 250.988281 124.894531 250.292969 123.863281 C 249.601562 122.828125 248.882812 121.808594 248.140625 120.808594 C 247.398438 119.808594 246.632812 118.828125 245.84375 117.867188 C 245.050781 116.902344 244.238281 115.960938 243.402344 115.039062 C 242.566406 114.117188 241.707031 113.214844 240.824219 112.335938 C 239.945312 111.453125 239.042969 110.597656 238.121094 109.761719 C 237.195312 108.921875 236.253906 108.109375 235.289062 107.320312 C 234.328125 106.53125 233.347656 105.765625 232.34375 105.023438 C 231.34375 104.28125 230.328125 103.5625 229.289062 102.871094 C 228.253906 102.179688 227.203125 101.515625 226.136719 100.875 C 225.066406 100.234375 223.984375 99.621094 222.882812 99.03125 C 221.785156 98.445312 220.675781 97.882812 219.546875 97.351562 C 218.421875 96.820312 217.285156 96.3125 216.132812 95.835938 C 214.980469 95.359375 213.820312 94.910156 212.648438 94.492188 C 211.476562 94.070312 210.292969 93.679688 209.101562 93.316406 C 207.910156 92.953125 206.707031 92.621094 205.5 92.320312 C 204.292969 92.015625 203.078125 91.742188 201.855469 91.496094 C 200.632812 91.253906 199.40625 91.039062 198.175781 90.855469 C 196.941406 90.671875 195.707031 90.519531 194.464844 90.394531 C 193.226562 90.273438 191.984375 90.179688 190.742188 90.117188 C 189.496094 90.054688 188.25 90.023438 187.003906 90.019531 Z M 187.003906 90.019531 " fill-opacity="1" fill-rule="nonzero"/><path fill="#f5929f" d="M 285.023438 101.023438 L 318.683594 101.023438 L 318.683594 119.820312 L 285.023438 119.820312 Z M 285.023438 101.023438 " fill-opacity="1" fill-rule="nonzero"/><path fill="#231f20" d="M 325.617188 115.261719 L 287.265625 115.261719 L 287.265625 106.613281 L 325.617188 106.613281 C 325.933594 106.613281 326.246094 106.582031 326.558594 106.519531 C 326.867188 106.457031 327.171875 106.367188 327.464844 106.246094 C 327.757812 106.125 328.035156 105.976562 328.300781 105.800781 C 328.5625 105.625 328.808594 105.421875 329.03125 105.199219 C 329.257812 104.976562 329.457031 104.730469 329.632812 104.46875 C 329.808594 104.203125 329.957031 103.925781 330.078125 103.632812 C 330.199219 103.339844 330.292969 103.039062 330.355469 102.726562 C 330.414062 102.414062 330.445312 102.101562 330.445312 101.785156 C 330.445312 101.46875 330.414062 101.152344 330.355469 100.84375 C 330.292969 100.53125 330.199219 100.230469 330.078125 99.9375 C 329.957031 99.644531 329.808594 99.367188 329.632812 99.101562 C 329.457031 98.839844 329.257812 98.59375 329.03125 98.371094 C 328.808594 98.148438 328.5625 97.945312 328.300781 97.769531 C 328.035156 97.59375 327.757812 97.445312 327.464844 97.324219 C 327.171875 97.203125 326.867188 97.113281 326.558594 97.050781 C 326.246094 96.988281 325.933594 96.957031 325.617188 96.957031 L 282.433594 96.957031 C 282.117188 96.957031 281.800781 96.988281 281.492188 97.050781 C 281.179688 97.113281 280.878906 97.203125 280.585938 97.324219 C 280.292969 97.445312 280.011719 97.59375 279.75 97.769531 C 279.484375 97.945312 279.242188 98.148438 279.015625 98.371094 C 278.792969 98.59375 278.59375 98.839844 278.414062 99.101562 C 278.238281 99.367188 278.089844 99.644531 277.96875 99.9375 C 277.847656 100.230469 277.757812 100.53125 277.695312 100.84375 C 277.632812 101.152344 277.601562 101.46875 277.601562 101.785156 L 277.601562 120.089844 C 277.601562 120.40625 277.632812 120.71875 277.695312 121.03125 C 277.757812 121.339844 277.847656 121.644531 277.96875 121.9375 C 278.089844 122.230469 278.238281 122.507812 278.414062 122.769531 C 278.59375 123.035156 278.792969 123.277344 279.015625 123.503906 C 279.242188 123.726562 279.484375 123.925781 279.75 124.101562 C 280.011719 124.277344 280.292969 124.425781 280.585938 124.550781 C 280.878906 124.671875 281.179688 124.761719 281.492188 124.824219 C 281.800781 124.886719 282.117188 124.917969 282.433594 124.917969 L 325.617188 124.917969 C 325.933594 124.917969 326.246094 124.886719 326.558594 124.824219 C 326.867188 124.761719 327.171875 124.671875 327.464844 124.550781 C 327.757812 124.425781 328.035156 124.277344 328.300781 124.101562 C 328.5625 123.925781 328.808594 123.726562 329.03125 123.503906 C 329.257812 123.277344 329.457031 123.035156 329.632812 122.769531 C 329.808594 122.507812 329.957031 122.230469 330.078125 121.9375 C 330.199219 121.644531 330.292969 121.339844 330.355469 121.03125 C 330.414062 120.71875 330.445312 120.40625 330.445312 120.089844 C 330.445312 119.769531 330.414062 119.457031 330.355469 119.144531 C 330.292969 118.835938 330.199219 118.535156 330.078125 118.242188 C 329.957031 117.949219 329.808594 117.667969 329.632812 117.40625 C 329.457031 117.140625 329.257812 116.898438 329.03125 116.675781 C 328.808594 116.449219 328.5625 116.25 328.300781 116.074219 C 328.035156 115.898438 327.757812 115.75 327.464844 115.628906 C 327.171875 115.507812 326.867188 115.414062 326.558594 115.351562 C 326.246094 115.289062 325.933594 115.261719 325.617188 115.261719 Z M 325.617188 115.261719 " fill-opacity="1" fill-rule="nonzero"/><path fill="#f8f5bb" d="M 317.886719 178.195312 C 317.886719 179.105469 317.796875 180.007812 317.617188 180.898438 C 317.441406 181.789062 317.179688 182.65625 316.832031 183.496094 C 316.480469 184.335938 316.054688 185.136719 315.550781 185.890625 C 315.042969 186.648438 314.46875 187.347656 313.824219 187.992188 C 313.183594 188.632812 312.480469 189.207031 311.726562 189.714844 C 310.96875 190.21875 310.167969 190.644531 309.328125 190.992188 C 308.488281 191.339844 307.621094 191.605469 306.726562 191.78125 C 305.835938 191.960938 304.933594 192.046875 304.023438 192.046875 C 303.113281 192.046875 302.210938 191.960938 301.320312 191.78125 C 300.425781 191.605469 299.5625 191.339844 298.71875 190.992188 C 297.878906 190.644531 297.082031 190.21875 296.324219 189.714844 C 295.566406 189.207031 294.867188 188.632812 294.222656 187.992188 C 293.578125 187.347656 293.003906 186.648438 292.5 185.890625 C 291.992188 185.136719 291.566406 184.335938 291.21875 183.496094 C 290.871094 182.65625 290.605469 181.789062 290.429688 180.898438 C 290.25 180.007812 290.164062 179.105469 290.164062 178.195312 C 290.164062 177.285156 290.25 176.386719 290.429688 175.492188 C 290.605469 174.601562 290.871094 173.734375 291.21875 172.894531 C 291.566406 172.054688 291.992188 171.257812 292.5 170.5 C 293.003906 169.746094 293.578125 169.046875 294.222656 168.402344 C 294.867188 167.757812 295.566406 167.183594 296.324219 166.679688 C 297.082031 166.175781 297.878906 165.746094 298.71875 165.398438 C 299.5625 165.050781 300.425781 164.789062 301.320312 164.609375 C 302.210938 164.433594 303.113281 164.34375 304.023438 164.34375 C 304.933594 164.34375 305.835938 164.433594 306.726562 164.609375 C 307.621094 164.789062 308.488281 165.050781 309.328125 165.398438 C 310.167969 165.746094 310.96875 166.175781 311.726562 166.679688 C 312.480469 167.183594 313.183594 167.757812 313.824219 168.402344 C 314.46875 169.046875 315.042969 169.746094 315.550781 170.5 C 316.054688 171.257812 316.480469 172.054688 316.832031 172.894531 C 317.179688 173.734375 317.441406 174.601562 317.617188 175.492188 C 317.796875 176.386719 317.886719 177.285156 317.886719 178.195312 Z M 317.886719 178.195312 " fill-opacity="1" fill-rule="nonzero"/><path fill="#231f20" d="M 304.027344 196.875 C 303.414062 196.875 302.804688 196.847656 302.195312 196.785156 C 301.585938 196.726562 300.980469 196.636719 300.378906 196.515625 C 299.777344 196.398438 299.1875 196.25 298.601562 196.070312 C 298.015625 195.894531 297.4375 195.6875 296.871094 195.453125 C 296.308594 195.21875 295.753906 194.957031 295.214844 194.671875 C 294.675781 194.382812 294.148438 194.066406 293.640625 193.726562 C 293.132812 193.386719 292.640625 193.023438 292.167969 192.636719 C 291.695312 192.246094 291.242188 191.835938 290.808594 191.40625 C 290.375 190.972656 289.964844 190.519531 289.574219 190.046875 C 289.1875 189.574219 288.824219 189.082031 288.484375 188.574219 C 288.144531 188.066406 287.828125 187.542969 287.539062 187 C 287.25 186.460938 286.988281 185.910156 286.753906 185.34375 C 286.519531 184.777344 286.316406 184.203125 286.136719 183.617188 C 285.960938 183.03125 285.8125 182.441406 285.691406 181.839844 C 285.574219 181.238281 285.484375 180.636719 285.421875 180.027344 C 285.363281 179.417969 285.332031 178.808594 285.332031 178.195312 C 285.332031 177.585938 285.363281 176.972656 285.421875 176.363281 C 285.484375 175.757812 285.574219 175.152344 285.691406 174.550781 C 285.8125 173.953125 285.960938 173.359375 286.136719 172.773438 C 286.316406 172.1875 286.519531 171.613281 286.753906 171.046875 C 286.988281 170.480469 287.25 169.929688 287.539062 169.390625 C 287.828125 168.851562 288.144531 168.328125 288.484375 167.816406 C 288.824219 167.308594 289.1875 166.820312 289.574219 166.34375 C 289.964844 165.871094 290.375 165.417969 290.808594 164.988281 C 291.242188 164.554688 291.695312 164.144531 292.167969 163.757812 C 292.640625 163.367188 293.132812 163.003906 293.640625 162.664062 C 294.148438 162.324219 294.671875 162.011719 295.214844 161.722656 C 295.753906 161.433594 296.304688 161.171875 296.871094 160.9375 C 297.4375 160.703125 298.011719 160.496094 298.597656 160.320312 C 299.183594 160.144531 299.777344 159.996094 300.378906 159.875 C 300.980469 159.753906 301.585938 159.664062 302.191406 159.605469 C 302.800781 159.546875 303.414062 159.515625 304.027344 159.515625 C 304.636719 159.515625 305.25 159.546875 305.859375 159.605469 C 306.46875 159.664062 307.070312 159.753906 307.671875 159.875 C 308.273438 159.996094 308.867188 160.144531 309.453125 160.320312 C 310.039062 160.496094 310.613281 160.703125 311.179688 160.9375 C 311.746094 161.171875 312.296875 161.433594 312.835938 161.722656 C 313.378906 162.011719 313.902344 162.324219 314.410156 162.664062 C 314.917969 163.003906 315.410156 163.367188 315.882812 163.757812 C 316.359375 164.144531 316.8125 164.554688 317.242188 164.988281 C 317.675781 165.421875 318.085938 165.871094 318.476562 166.347656 C 318.863281 166.820312 319.226562 167.308594 319.566406 167.816406 C 319.910156 168.328125 320.222656 168.851562 320.511719 169.390625 C 320.800781 169.929688 321.0625 170.484375 321.296875 171.046875 C 321.53125 171.613281 321.734375 172.1875 321.914062 172.773438 C 322.089844 173.359375 322.238281 173.953125 322.359375 174.550781 C 322.480469 175.152344 322.566406 175.757812 322.628906 176.367188 C 322.6875 176.972656 322.71875 177.585938 322.71875 178.195312 C 322.71875 178.808594 322.6875 179.417969 322.625 180.027344 C 322.566406 180.636719 322.476562 181.238281 322.355469 181.839844 C 322.234375 182.4375 322.085938 183.03125 321.910156 183.617188 C 321.730469 184.203125 321.523438 184.777344 321.289062 185.339844 C 321.054688 185.90625 320.792969 186.457031 320.503906 186.996094 C 320.214844 187.535156 319.902344 188.0625 319.5625 188.570312 C 319.222656 189.078125 318.855469 189.566406 318.46875 190.039062 C 318.082031 190.511719 317.667969 190.964844 317.238281 191.398438 C 316.804688 191.832031 316.351562 192.242188 315.878906 192.628906 C 315.40625 193.015625 314.914062 193.382812 314.40625 193.722656 C 313.898438 194.0625 313.371094 194.375 312.832031 194.664062 C 312.292969 194.953125 311.742188 195.214844 311.175781 195.449219 C 310.609375 195.683594 310.035156 195.886719 309.449219 196.066406 C 308.863281 196.246094 308.269531 196.394531 307.671875 196.511719 C 307.070312 196.632812 306.464844 196.722656 305.859375 196.785156 C 305.25 196.84375 304.636719 196.875 304.027344 196.875 Z M 304.027344 169.171875 C 303.433594 169.171875 302.847656 169.230469 302.265625 169.347656 C 301.683594 169.460938 301.117188 169.632812 300.570312 169.859375 C 300.023438 170.085938 299.503906 170.363281 299.007812 170.695312 C 298.515625 171.023438 298.058594 171.398438 297.640625 171.816406 C 297.222656 172.234375 296.847656 172.691406 296.519531 173.183594 C 296.1875 173.675781 295.910156 174.195312 295.683594 174.742188 C 295.457031 175.289062 295.285156 175.855469 295.167969 176.4375 C 295.054688 177.015625 294.996094 177.605469 294.996094 178.195312 C 294.996094 178.789062 295.054688 179.375 295.167969 179.957031 C 295.285156 180.539062 295.457031 181.101562 295.683594 181.648438 C 295.910156 182.195312 296.1875 182.71875 296.515625 183.210938 C 296.847656 183.703125 297.222656 184.160156 297.640625 184.578125 C 298.058594 184.996094 298.515625 185.371094 299.007812 185.699219 C 299.5 186.027344 300.023438 186.308594 300.570312 186.535156 C 301.117188 186.761719 301.683594 186.929688 302.265625 187.046875 C 302.84375 187.164062 303.433594 187.21875 304.023438 187.21875 C 304.617188 187.21875 305.207031 187.164062 305.785156 187.046875 C 306.367188 186.929688 306.933594 186.761719 307.480469 186.535156 C 308.027344 186.308594 308.550781 186.027344 309.042969 185.699219 C 309.535156 185.371094 309.992188 184.996094 310.410156 184.578125 C 310.828125 184.160156 311.203125 183.703125 311.535156 183.210938 C 311.863281 182.71875 312.140625 182.199219 312.367188 181.648438 C 312.59375 181.101562 312.765625 180.539062 312.882812 179.957031 C 312.996094 179.375 313.054688 178.789062 313.054688 178.195312 C 313.054688 177.605469 312.996094 177.019531 312.878906 176.4375 C 312.765625 175.855469 312.59375 175.292969 312.363281 174.746094 C 312.136719 174.199219 311.859375 173.679688 311.53125 173.1875 C 311.199219 172.695312 310.828125 172.238281 310.40625 171.820312 C 309.988281 171.402344 309.53125 171.027344 309.039062 170.695312 C 308.546875 170.367188 308.027344 170.089844 307.480469 169.863281 C 306.933594 169.636719 306.367188 169.464844 305.785156 169.347656 C 305.207031 169.230469 304.617188 169.171875 304.027344 169.171875 Z M 304.027344 169.171875 " fill-opacity="1" fill-rule="nonzero"/><path fill="#231f20" d="M 344.546875 269.101562 L 84.996094 269.101562 C 84.679688 269.101562 84.367188 269.070312 84.054688 269.007812 C 83.742188 268.949219 83.441406 268.855469 83.148438 268.734375 C 82.855469 268.613281 82.578125 268.464844 82.3125 268.289062 C 82.050781 268.113281 81.804688 267.914062 81.582031 267.6875 C 81.355469 267.464844 81.15625 267.21875 80.980469 266.957031 C 80.804688 266.691406 80.65625 266.414062 80.535156 266.121094 C 80.414062 265.828125 80.320312 265.527344 80.257812 265.214844 C 80.195312 264.90625 80.164062 264.589844 80.164062 264.273438 C 80.164062 263.957031 80.195312 263.644531 80.257812 263.332031 C 80.320312 263.019531 80.414062 262.71875 80.535156 262.425781 C 80.65625 262.132812 80.804688 261.855469 80.980469 261.589844 C 81.15625 261.328125 81.355469 261.085938 81.582031 260.859375 C 81.804688 260.636719 82.050781 260.4375 82.3125 260.257812 C 82.578125 260.082031 82.855469 259.933594 83.148438 259.8125 C 83.441406 259.691406 83.742188 259.601562 84.054688 259.539062 C 84.367188 259.476562 84.679688 259.445312 84.996094 259.445312 L 344.546875 259.445312 C 344.863281 259.445312 345.175781 259.476562 345.488281 259.539062 C 345.800781 259.601562 346.101562 259.691406 346.394531 259.8125 C 346.6875 259.933594 346.964844 260.082031 347.230469 260.257812 C 347.492188 260.4375 347.738281 260.636719 347.960938 260.859375 C 348.1875 261.085938 348.386719 261.328125 348.5625 261.589844 C 348.738281 261.855469 348.886719 262.132812 349.011719 262.425781 C 349.132812 262.71875 349.222656 263.019531 349.285156 263.332031 C 349.347656 263.644531 349.378906 263.957031 349.378906 264.273438 C 349.378906 264.589844 349.347656 264.90625 349.285156 265.214844 C 349.222656 265.527344 349.132812 265.828125 349.011719 266.121094 C 348.886719 266.414062 348.738281 266.691406 348.5625 266.957031 C 348.386719 267.21875 348.1875 267.464844 347.960938 267.6875 C 347.738281 267.914062 347.492188 268.113281 347.230469 268.289062 C 346.964844 268.464844 346.6875 268.613281 346.394531 268.734375 C 346.101562 268.855469 345.800781 268.949219 345.488281 269.007812 C 345.175781 269.070312 344.863281 269.101562 344.546875 269.101562 Z M 344.546875 269.101562 " fill-opacity="1" fill-rule="nonzero"/><path fill="#f5929f" d="M 244.007812 334.125 L 228.902344 307.976562 L 146.097656 307.976562 L 130.992188 334.125 Z M 244.007812 334.125 " fill-opacity="1" fill-rule="nonzero"/><path fill="#231f20" d="M 252.375 338.953125 L 122.625 338.953125 L 143.308594 303.148438 L 231.691406 303.148438 Z M 139.359375 329.296875 L 235.640625 329.296875 L 226.113281 312.804688 L 148.886719 312.804688 Z M 139.359375 329.296875 " fill-opacity="1" fill-rule="nonzero"/><path fill="#f5929f" d="M 108.570312 333.707031 L 265.441406 333.707031 C 265.925781 333.707031 266.402344 333.753906 266.875 333.847656 C 267.351562 333.941406 267.808594 334.082031 268.253906 334.265625 C 268.703125 334.449219 269.125 334.675781 269.527344 334.945312 C 269.929688 335.214844 270.300781 335.519531 270.640625 335.859375 C 270.980469 336.199219 271.285156 336.570312 271.554688 336.972656 C 271.824219 337.375 272.050781 337.796875 272.234375 338.242188 C 272.417969 338.6875 272.558594 339.148438 272.652344 339.621094 C 272.746094 340.09375 272.792969 340.570312 272.792969 341.054688 L 272.792969 346.523438 C 272.792969 347.007812 272.746094 347.484375 272.652344 347.957031 C 272.558594 348.433594 272.417969 348.890625 272.234375 349.335938 C 272.050781 349.78125 271.824219 350.207031 271.554688 350.605469 C 271.285156 351.007812 270.980469 351.378906 270.640625 351.722656 C 270.300781 352.0625 269.929688 352.367188 269.527344 352.632812 C 269.125 352.902344 268.703125 353.128906 268.253906 353.3125 C 267.808594 353.5 267.351562 353.636719 266.875 353.730469 C 266.402344 353.824219 265.925781 353.871094 265.441406 353.871094 L 108.570312 353.871094 C 108.085938 353.871094 107.609375 353.824219 107.132812 353.730469 C 106.660156 353.636719 106.203125 353.5 105.753906 353.3125 C 105.308594 353.128906 104.886719 352.902344 104.484375 352.632812 C 104.082031 352.367188 103.710938 352.0625 103.371094 351.722656 C 103.027344 351.378906 102.722656 351.007812 102.457031 350.605469 C 102.1875 350.207031 101.960938 349.78125 101.777344 349.335938 C 101.589844 348.890625 101.453125 348.433594 101.359375 347.957031 C 101.261719 347.484375 101.214844 347.007812 101.214844 346.523438 L 101.214844 341.054688 C 101.214844 340.570312 101.261719 340.09375 101.359375 339.621094 C 101.453125 339.148438 101.589844 338.6875 101.777344 338.242188 C 101.960938 337.796875 102.1875 337.375 102.457031 336.972656 C 102.722656 336.570312 103.027344 336.199219 103.371094 335.859375 C 103.710938 335.519531 104.082031 335.214844 104.484375 334.945312 C 104.886719 334.675781 105.308594 334.449219 105.753906 334.265625 C 106.203125 334.082031 106.660156 333.941406 107.132812 333.847656 C 107.609375 333.753906 108.085938 333.707031 108.570312 333.707031 Z M 108.570312 333.707031 " fill-opacity="1" fill-rule="nonzero"/><g clip-path="url(#08a4492dd9)"><path fill="#231f20" d="M 265.441406 358.699219 L 108.566406 358.699219 C 107.769531 358.699219 106.976562 358.621094 106.191406 358.464844 C 105.410156 358.308594 104.648438 358.074219 103.910156 357.769531 C 103.167969 357.464844 102.46875 357.089844 101.804688 356.644531 C 101.136719 356.199219 100.523438 355.695312 99.957031 355.128906 C 99.390625 354.566406 98.886719 353.949219 98.441406 353.285156 C 98 352.621094 97.621094 351.921875 97.316406 351.183594 C 97.011719 350.445312 96.777344 349.683594 96.621094 348.898438 C 96.464844 348.117188 96.386719 347.324219 96.386719 346.523438 L 96.386719 341.054688 C 96.386719 340.257812 96.464844 339.464844 96.621094 338.683594 C 96.777344 337.898438 97.011719 337.136719 97.316406 336.398438 C 97.621094 335.660156 98 334.960938 98.441406 334.296875 C 98.886719 333.632812 99.390625 333.015625 99.957031 332.453125 C 100.523438 331.886719 101.136719 331.382812 101.804688 330.9375 C 102.46875 330.492188 103.167969 330.117188 103.910156 329.8125 C 104.648438 329.503906 105.410156 329.273438 106.191406 329.117188 C 106.976562 328.960938 107.769531 328.882812 108.566406 328.878906 L 265.441406 328.878906 C 266.242188 328.882812 267.03125 328.960938 267.816406 329.117188 C 268.601562 329.273438 269.363281 329.503906 270.101562 329.8125 C 270.839844 330.117188 271.542969 330.492188 272.207031 330.9375 C 272.871094 331.382812 273.488281 331.886719 274.050781 332.453125 C 274.617188 333.015625 275.121094 333.632812 275.566406 334.296875 C 276.011719 334.960938 276.386719 335.660156 276.695312 336.398438 C 277 337.136719 277.230469 337.898438 277.386719 338.683594 C 277.546875 339.464844 277.625 340.257812 277.625 341.054688 L 277.625 346.527344 C 277.625 347.328125 277.546875 348.117188 277.386719 348.902344 C 277.230469 349.683594 277 350.445312 276.691406 351.183594 C 276.386719 351.921875 276.011719 352.625 275.566406 353.289062 C 275.121094 353.953125 274.617188 354.566406 274.050781 355.132812 C 273.484375 355.695312 272.871094 356.199219 272.207031 356.644531 C 271.542969 357.089844 270.839844 357.464844 270.101562 357.769531 C 269.363281 358.078125 268.601562 358.308594 267.816406 358.464844 C 267.03125 358.621094 266.242188 358.699219 265.441406 358.699219 Z M 108.566406 338.535156 C 108.234375 338.535156 107.914062 338.597656 107.605469 338.726562 C 107.296875 338.855469 107.023438 339.039062 106.785156 339.273438 C 106.550781 339.507812 106.367188 339.78125 106.242188 340.089844 C 106.113281 340.398438 106.046875 340.71875 106.046875 341.054688 L 106.046875 346.523438 C 106.046875 346.859375 106.113281 347.179688 106.242188 347.488281 C 106.367188 347.796875 106.550781 348.070312 106.785156 348.304688 C 107.023438 348.542969 107.296875 348.722656 107.605469 348.851562 C 107.914062 348.980469 108.234375 349.042969 108.566406 349.042969 L 265.441406 349.042969 C 265.777344 349.042969 266.097656 348.980469 266.40625 348.851562 C 266.714844 348.722656 266.988281 348.542969 267.222656 348.304688 C 267.460938 348.070312 267.640625 347.796875 267.769531 347.488281 C 267.898438 347.179688 267.960938 346.859375 267.960938 346.523438 L 267.960938 341.054688 C 267.960938 340.722656 267.898438 340.402344 267.769531 340.09375 C 267.640625 339.785156 267.460938 339.511719 267.222656 339.277344 C 266.988281 339.039062 266.714844 338.855469 266.40625 338.730469 C 266.097656 338.601562 265.777344 338.539062 265.441406 338.535156 Z M 108.566406 338.535156 " fill-opacity="1" fill-rule="nonzero"/></g></svg>