<svg xmlns="http://www.w3.org/2000/svg" xmlns:xlink="http://www.w3.org/1999/xlink" width="500" zoomAndPan="magnify" viewBox="0 0 375 374.999991" height="500" preserveAspectRatio="xMidYMid meet" version="1.0"><defs><g/><clipPath id="1284ec7758"><path d="M 134.75 107.46875 L 240.5 107.46875 L 240.5 192 L 134.75 192 Z M 134.75 107.46875 " clip-rule="nonzero"/></clipPath><clipPath id="10b873c75c"><path d="M 161 195 L 214 195 L 214 204.21875 L 161 204.21875 Z M 161 195 " clip-rule="nonzero"/></clipPath></defs><path fill="#f5929f" d="M 144.066406 108.851562 L 231.179688 108.851562 C 231.703125 108.851562 232.21875 108.902344 232.730469 109.003906 C 233.242188 109.105469 233.742188 109.257812 234.222656 109.457031 C 234.707031 109.65625 235.164062 109.902344 235.597656 110.191406 C 236.035156 110.480469 236.4375 110.8125 236.804688 111.179688 C 237.175781 111.550781 237.503906 111.953125 237.792969 112.386719 C 238.085938 112.820312 238.332031 113.28125 238.53125 113.761719 C 238.730469 114.246094 238.882812 114.742188 238.984375 115.257812 C 239.085938 115.769531 239.136719 116.285156 239.136719 116.808594 L 239.136719 181.878906 C 239.136719 182.402344 239.085938 182.917969 238.984375 183.429688 C 238.882812 183.945312 238.730469 184.441406 238.53125 184.925781 C 238.332031 185.40625 238.085938 185.867188 237.792969 186.300781 C 237.503906 186.734375 237.175781 187.136719 236.804688 187.507812 C 236.4375 187.875 236.035156 188.207031 235.597656 188.496094 C 235.164062 188.785156 234.707031 189.03125 234.222656 189.230469 C 233.742188 189.429688 233.242188 189.582031 232.730469 189.683594 C 232.21875 189.785156 231.703125 189.835938 231.179688 189.835938 L 144.066406 189.835938 C 143.546875 189.835938 143.027344 189.785156 142.515625 189.683594 C 142.003906 189.582031 141.503906 189.429688 141.023438 189.230469 C 140.539062 189.03125 140.082031 188.785156 139.648438 188.496094 C 139.210938 188.207031 138.8125 187.875 138.441406 187.507812 C 138.070312 187.136719 137.742188 186.734375 137.453125 186.300781 C 137.160156 185.867188 136.917969 185.40625 136.714844 184.925781 C 136.515625 184.441406 136.367188 183.945312 136.261719 183.429688 C 136.160156 182.917969 136.109375 182.402344 136.109375 181.878906 L 136.109375 116.808594 C 136.109375 116.285156 136.160156 115.769531 136.261719 115.257812 C 136.367188 114.742188 136.515625 114.246094 136.714844 113.761719 C 136.917969 113.28125 137.160156 112.820312 137.453125 112.386719 C 137.742188 111.953125 138.070312 111.550781 138.441406 111.179688 C 138.8125 110.8125 139.210938 110.480469 139.648438 110.191406 C 140.082031 109.902344 140.539062 109.65625 141.023438 109.457031 C 141.503906 109.257812 142.003906 109.105469 142.515625 109.003906 C 143.027344 108.902344 143.546875 108.851562 144.066406 108.851562 Z M 144.066406 108.851562 " fill-opacity="1" fill-rule="nonzero"/><g clip-path="url(#1284ec7758)"><path fill="#231f20" d="M 231.179688 191.199219 L 144.066406 191.199219 C 143.457031 191.199219 142.851562 191.140625 142.25 191.019531 C 141.652344 190.898438 141.066406 190.722656 140.503906 190.488281 C 139.9375 190.253906 139.402344 189.964844 138.894531 189.625 C 138.382812 189.285156 137.914062 188.898438 137.480469 188.464844 C 137.046875 188.035156 136.664062 187.5625 136.320312 187.054688 C 135.980469 186.546875 135.695312 186.007812 135.460938 185.445312 C 135.226562 184.878906 135.050781 184.296875 134.929688 183.695312 C 134.808594 183.097656 134.75 182.488281 134.75 181.878906 L 134.75 116.808594 C 134.75 116.199219 134.808594 115.589844 134.929688 114.992188 C 135.050781 114.390625 135.226562 113.808594 135.460938 113.242188 C 135.695312 112.679688 135.980469 112.140625 136.320312 111.632812 C 136.664062 111.125 137.046875 110.652344 137.480469 110.222656 C 137.914062 109.789062 138.382812 109.402344 138.894531 109.0625 C 139.402344 108.722656 139.9375 108.433594 140.503906 108.199219 C 141.066406 107.964844 141.652344 107.789062 142.25 107.667969 C 142.851562 107.546875 143.457031 107.488281 144.066406 107.488281 L 231.179688 107.488281 C 231.789062 107.488281 232.398438 107.546875 232.996094 107.667969 C 233.597656 107.789062 234.179688 107.964844 234.742188 108.199219 C 235.308594 108.433594 235.847656 108.722656 236.355469 109.0625 C 236.863281 109.402344 237.332031 109.789062 237.765625 110.222656 C 238.199219 110.652344 238.585938 111.125 238.925781 111.632812 C 239.265625 112.140625 239.550781 112.679688 239.785156 113.242188 C 240.019531 113.808594 240.199219 114.390625 240.316406 114.992188 C 240.4375 115.589844 240.5 116.199219 240.5 116.808594 L 240.5 181.878906 C 240.5 182.488281 240.4375 183.097656 240.316406 183.695312 C 240.199219 184.296875 240.019531 184.878906 239.785156 185.445312 C 239.550781 186.007812 239.265625 186.546875 238.925781 187.054688 C 238.585938 187.5625 238.199219 188.035156 237.765625 188.464844 C 237.332031 188.898438 236.863281 189.285156 236.355469 189.625 C 235.847656 189.964844 235.308594 190.253906 234.742188 190.488281 C 234.179688 190.722656 233.597656 190.898438 232.996094 191.019531 C 232.398438 191.140625 231.789062 191.199219 231.179688 191.199219 Z M 144.066406 110.214844 C 143.636719 110.214844 143.207031 110.257812 142.78125 110.339844 C 142.355469 110.425781 141.945312 110.550781 141.546875 110.71875 C 141.144531 110.882812 140.765625 111.085938 140.40625 111.328125 C 140.046875 111.566406 139.714844 111.839844 139.40625 112.148438 C 139.101562 112.453125 138.828125 112.785156 138.585938 113.148438 C 138.347656 113.507812 138.144531 113.886719 137.976562 114.285156 C 137.8125 114.6875 137.6875 115.097656 137.601562 115.523438 C 137.515625 115.949219 137.472656 116.375 137.472656 116.808594 L 137.472656 181.878906 C 137.472656 182.3125 137.515625 182.738281 137.601562 183.164062 C 137.6875 183.589844 137.8125 184 137.976562 184.402344 C 138.144531 184.800781 138.347656 185.179688 138.585938 185.539062 C 138.828125 185.902344 139.101562 186.234375 139.40625 186.539062 C 139.714844 186.847656 140.046875 187.121094 140.40625 187.359375 C 140.765625 187.601562 141.144531 187.804688 141.546875 187.96875 C 141.945312 188.136719 142.355469 188.261719 142.78125 188.347656 C 143.207031 188.429688 143.636719 188.472656 144.066406 188.472656 L 231.179688 188.472656 C 231.613281 188.472656 232.039062 188.429688 232.464844 188.347656 C 232.890625 188.261719 233.300781 188.136719 233.703125 187.96875 C 234.101562 187.804688 234.480469 187.601562 234.839844 187.359375 C 235.199219 187.121094 235.535156 186.847656 235.839844 186.539062 C 236.144531 186.234375 236.417969 185.902344 236.660156 185.539062 C 236.902344 185.179688 237.105469 184.800781 237.269531 184.402344 C 237.4375 184 237.5625 183.589844 237.644531 183.164062 C 237.730469 182.738281 237.773438 182.3125 237.773438 181.878906 L 237.773438 116.808594 C 237.773438 116.375 237.730469 115.949219 237.644531 115.523438 C 237.5625 115.097656 237.4375 114.6875 237.269531 114.285156 C 237.105469 113.886719 236.902344 113.507812 236.660156 113.148438 C 236.417969 112.785156 236.144531 112.453125 235.839844 112.148438 C 235.535156 111.839844 235.199219 111.566406 234.839844 111.328125 C 234.480469 111.085938 234.101562 110.882812 233.703125 110.71875 C 233.300781 110.550781 232.890625 110.425781 232.464844 110.339844 C 232.039062 110.257812 231.613281 110.214844 231.179688 110.214844 Z M 144.066406 110.214844 " fill-opacity="1" fill-rule="nonzero"/></g><path fill="#c4e5f2" d="M 144.207031 114.09375 L 230.761719 114.09375 C 231.09375 114.09375 231.414062 114.160156 231.722656 114.285156 C 232.03125 114.414062 232.300781 114.59375 232.535156 114.832031 C 232.773438 115.066406 232.953125 115.339844 233.082031 115.648438 C 233.207031 115.953125 233.273438 116.273438 233.273438 116.609375 L 233.273438 181.957031 C 233.273438 182.289062 233.207031 182.609375 233.082031 182.917969 C 232.953125 183.226562 232.773438 183.496094 232.535156 183.734375 C 232.300781 183.96875 232.03125 184.152344 231.722656 184.277344 C 231.414062 184.40625 231.09375 184.46875 230.761719 184.46875 L 144.207031 184.46875 C 143.875 184.46875 143.554688 184.40625 143.246094 184.277344 C 142.9375 184.152344 142.667969 183.96875 142.429688 183.734375 C 142.195312 183.496094 142.011719 183.226562 141.886719 182.917969 C 141.757812 182.609375 141.695312 182.289062 141.695312 181.957031 L 141.695312 116.609375 C 141.695312 116.273438 141.757812 115.953125 141.886719 115.648438 C 142.011719 115.339844 142.195312 115.066406 142.429688 114.832031 C 142.667969 114.59375 142.9375 114.414062 143.246094 114.285156 C 143.554688 114.160156 143.875 114.09375 144.207031 114.09375 Z M 144.207031 114.09375 " fill-opacity="1" fill-rule="nonzero"/><path fill="#91d2e7" d="M 143.058594 114.09375 L 159.003906 114.09375 L 159.003906 184.25 L 143.058594 184.25 Z M 143.058594 114.09375 " fill-opacity="1" fill-rule="nonzero"/><path fill="#231f20" d="M 230.761719 185.832031 L 144.207031 185.832031 C 143.695312 185.832031 143.199219 185.734375 142.726562 185.535156 C 142.25 185.339844 141.832031 185.058594 141.46875 184.695312 C 141.105469 184.332031 140.824219 183.914062 140.628906 183.4375 C 140.429688 182.964844 140.332031 182.46875 140.332031 181.957031 L 140.332031 116.609375 C 140.332031 116.09375 140.429688 115.601562 140.628906 115.125 C 140.824219 114.652344 141.105469 114.230469 141.46875 113.867188 C 141.832031 113.503906 142.25 113.226562 142.726562 113.027344 C 143.199219 112.832031 143.695312 112.734375 144.207031 112.730469 L 230.761719 112.730469 C 231.273438 112.734375 231.769531 112.832031 232.242188 113.027344 C 232.71875 113.226562 233.136719 113.503906 233.5 113.867188 C 233.863281 114.230469 234.140625 114.652344 234.339844 115.125 C 234.535156 115.601562 234.636719 116.09375 234.636719 116.609375 L 234.636719 181.957031 C 234.636719 182.46875 234.535156 182.964844 234.339844 183.4375 C 234.140625 183.914062 233.863281 184.332031 233.5 184.695312 C 233.136719 185.058594 232.714844 185.339844 232.242188 185.535156 C 231.769531 185.734375 231.273438 185.832031 230.761719 185.832031 Z M 144.207031 115.457031 C 144.054688 115.457031 143.910156 115.488281 143.765625 115.546875 C 143.625 115.605469 143.503906 115.6875 143.394531 115.796875 C 143.285156 115.902344 143.203125 116.027344 143.144531 116.167969 C 143.085938 116.308594 143.058594 116.457031 143.058594 116.609375 L 143.058594 181.957031 C 143.058594 182.109375 143.085938 182.253906 143.144531 182.394531 C 143.203125 182.535156 143.285156 182.660156 143.394531 182.769531 C 143.503906 182.878906 143.625 182.960938 143.765625 183.019531 C 143.910156 183.078125 144.054688 183.105469 144.207031 183.105469 L 230.761719 183.105469 C 230.914062 183.105469 231.058594 183.078125 231.199219 183.019531 C 231.339844 182.960938 231.464844 182.875 231.574219 182.769531 C 231.679688 182.660156 231.765625 182.535156 231.824219 182.394531 C 231.882812 182.253906 231.910156 182.109375 231.910156 181.957031 L 231.910156 116.609375 C 231.910156 116.457031 231.882812 116.308594 231.824219 116.167969 C 231.765625 116.027344 231.679688 115.902344 231.574219 115.796875 C 231.464844 115.6875 231.339844 115.605469 231.199219 115.546875 C 231.058594 115.488281 230.914062 115.457031 230.761719 115.457031 Z M 144.207031 115.457031 " fill-opacity="1" fill-rule="nonzero"/><path fill="#231f20" d="M 158.71875 147.914062 C 158.535156 147.914062 158.363281 147.878906 158.195312 147.808594 C 158.027344 147.742188 157.882812 147.644531 157.753906 147.515625 C 157.625 147.386719 157.527344 147.238281 157.457031 147.074219 C 157.390625 146.90625 157.355469 146.730469 157.355469 146.550781 L 157.355469 114.09375 C 157.355469 113.914062 157.390625 113.742188 157.457031 113.574219 C 157.527344 113.40625 157.625 113.257812 157.753906 113.132812 C 157.882812 113.003906 158.027344 112.90625 158.195312 112.835938 C 158.363281 112.765625 158.535156 112.730469 158.71875 112.730469 C 158.898438 112.730469 159.070312 112.765625 159.238281 112.835938 C 159.40625 112.90625 159.554688 113.003906 159.679688 113.132812 C 159.808594 113.257812 159.90625 113.40625 159.976562 113.574219 C 160.046875 113.742188 160.078125 113.914062 160.078125 114.09375 L 160.078125 146.550781 C 160.078125 146.730469 160.046875 146.90625 159.976562 147.074219 C 159.90625 147.238281 159.808594 147.386719 159.679688 147.515625 C 159.554688 147.644531 159.40625 147.742188 159.238281 147.808594 C 159.070312 147.878906 158.898438 147.914062 158.71875 147.914062 Z M 158.71875 147.914062 " fill-opacity="1" fill-rule="nonzero"/><path fill="#231f20" d="M 158.71875 185.660156 C 158.535156 185.660156 158.363281 185.628906 158.195312 185.558594 C 158.027344 185.488281 157.882812 185.390625 157.753906 185.261719 C 157.625 185.136719 157.527344 184.988281 157.457031 184.820312 C 157.390625 184.652344 157.355469 184.480469 157.355469 184.300781 L 157.355469 157.160156 C 157.355469 156.980469 157.390625 156.808594 157.457031 156.640625 C 157.527344 156.472656 157.625 156.324219 157.753906 156.199219 C 157.882812 156.070312 158.027344 155.972656 158.195312 155.902344 C 158.363281 155.832031 158.535156 155.800781 158.71875 155.800781 C 158.898438 155.800781 159.070312 155.832031 159.238281 155.902344 C 159.40625 155.972656 159.554688 156.070312 159.679688 156.199219 C 159.808594 156.324219 159.90625 156.472656 159.976562 156.640625 C 160.046875 156.808594 160.078125 156.980469 160.078125 157.160156 L 160.078125 184.300781 C 160.078125 184.480469 160.046875 184.652344 159.976562 184.820312 C 159.90625 184.988281 159.808594 185.136719 159.679688 185.261719 C 159.554688 185.390625 159.40625 185.488281 159.238281 185.558594 C 159.070312 185.628906 158.898438 185.660156 158.71875 185.660156 Z M 158.71875 185.660156 " fill-opacity="1" fill-rule="nonzero"/><path fill="#231f20" d="M 150.628906 166.933594 C 150.449219 166.933594 150.273438 166.898438 150.109375 166.832031 C 149.941406 166.761719 149.792969 166.664062 149.664062 166.535156 C 149.539062 166.40625 149.441406 166.261719 149.371094 166.09375 C 149.300781 165.925781 149.265625 165.753906 149.265625 165.570312 L 149.265625 133.117188 C 149.265625 132.933594 149.300781 132.761719 149.371094 132.59375 C 149.441406 132.425781 149.539062 132.28125 149.664062 132.152344 C 149.792969 132.023438 149.941406 131.925781 150.109375 131.855469 C 150.273438 131.789062 150.449219 131.753906 150.628906 131.753906 C 150.808594 131.753906 150.984375 131.789062 151.152344 131.855469 C 151.316406 131.925781 151.464844 132.023438 151.59375 132.152344 C 151.71875 132.28125 151.820312 132.425781 151.886719 132.59375 C 151.957031 132.761719 151.992188 132.933594 151.992188 133.117188 L 151.992188 165.570312 C 151.992188 165.753906 151.957031 165.925781 151.886719 166.09375 C 151.820312 166.261719 151.71875 166.40625 151.59375 166.535156 C 151.464844 166.664062 151.316406 166.761719 151.152344 166.832031 C 150.984375 166.898438 150.808594 166.933594 150.628906 166.933594 Z M 150.628906 166.933594 " fill-opacity="1" fill-rule="nonzero"/><path fill="#f8f5bb" d="M 210.320312 149.84375 C 210.320312 150.59375 210.285156 151.339844 210.210938 152.082031 C 210.136719 152.828125 210.027344 153.566406 209.882812 154.300781 C 209.734375 155.035156 209.554688 155.757812 209.335938 156.476562 C 209.121094 157.191406 208.867188 157.894531 208.582031 158.585938 C 208.296875 159.277344 207.976562 159.953125 207.625 160.613281 C 207.269531 161.273438 206.886719 161.914062 206.472656 162.535156 C 206.054688 163.15625 205.609375 163.757812 205.136719 164.335938 C 204.660156 164.914062 204.160156 165.46875 203.632812 165.996094 C 203.101562 166.523438 202.550781 167.027344 201.972656 167.5 C 201.394531 167.976562 200.792969 168.421875 200.171875 168.835938 C 199.550781 169.253906 198.910156 169.636719 198.25 169.988281 C 197.589844 170.339844 196.914062 170.660156 196.222656 170.949219 C 195.53125 171.234375 194.828125 171.484375 194.113281 171.703125 C 193.398438 171.917969 192.671875 172.101562 191.9375 172.246094 C 191.207031 172.394531 190.464844 172.503906 189.722656 172.574219 C 188.976562 172.648438 188.230469 172.6875 187.484375 172.6875 C 186.734375 172.6875 185.988281 172.648438 185.246094 172.574219 C 184.5 172.503906 183.761719 172.394531 183.027344 172.246094 C 182.296875 172.101562 181.570312 171.917969 180.855469 171.703125 C 180.140625 171.484375 179.433594 171.234375 178.746094 170.949219 C 178.054688 170.660156 177.378906 170.339844 176.71875 169.988281 C 176.058594 169.636719 175.417969 169.253906 174.796875 168.835938 C 174.175781 168.421875 173.574219 167.976562 172.996094 167.5 C 172.417969 167.027344 171.863281 166.523438 171.335938 165.996094 C 170.808594 165.46875 170.304688 164.914062 169.832031 164.335938 C 169.355469 163.757812 168.910156 163.15625 168.496094 162.535156 C 168.082031 161.914062 167.695312 161.273438 167.34375 160.613281 C 166.992188 159.953125 166.671875 159.277344 166.386719 158.585938 C 166.097656 157.894531 165.847656 157.191406 165.628906 156.476562 C 165.414062 155.757812 165.230469 155.035156 165.085938 154.300781 C 164.941406 153.566406 164.832031 152.828125 164.757812 152.082031 C 164.683594 151.339844 164.648438 150.59375 164.648438 149.84375 C 164.648438 149.097656 164.683594 148.351562 164.757812 147.605469 C 164.832031 146.859375 164.941406 146.121094 165.085938 145.386719 C 165.230469 144.65625 165.414062 143.929688 165.628906 143.214844 C 165.847656 142.496094 166.097656 141.792969 166.386719 141.101562 C 166.671875 140.410156 166.992188 139.738281 167.34375 139.078125 C 167.695312 138.417969 168.082031 137.777344 168.496094 137.152344 C 168.910156 136.53125 169.355469 135.933594 169.832031 135.355469 C 170.304688 134.777344 170.808594 134.222656 171.335938 133.691406 C 171.863281 133.164062 172.417969 132.660156 172.996094 132.1875 C 173.574219 131.714844 174.175781 131.269531 174.796875 130.851562 C 175.417969 130.4375 176.058594 130.050781 176.71875 129.699219 C 177.378906 129.347656 178.054688 129.027344 178.746094 128.742188 C 179.433594 128.457031 180.140625 128.203125 180.855469 127.984375 C 181.570312 127.769531 182.296875 127.585938 183.027344 127.441406 C 183.761719 127.296875 184.5 127.1875 185.246094 127.113281 C 185.988281 127.039062 186.734375 127.003906 187.484375 127.003906 C 188.230469 127.003906 188.976562 127.039062 189.722656 127.113281 C 190.464844 127.1875 191.207031 127.296875 191.9375 127.441406 C 192.671875 127.585938 193.398438 127.769531 194.113281 127.984375 C 194.828125 128.203125 195.53125 128.457031 196.222656 128.742188 C 196.914062 129.027344 197.589844 129.347656 198.25 129.699219 C 198.910156 130.050781 199.550781 130.4375 200.171875 130.851562 C 200.792969 131.269531 201.394531 131.714844 201.972656 132.1875 C 202.550781 132.660156 203.101562 133.164062 203.632812 133.691406 C 204.160156 134.222656 204.660156 134.777344 205.136719 135.355469 C 205.609375 135.933594 206.054688 136.53125 206.472656 137.152344 C 206.886719 137.777344 207.269531 138.417969 207.625 139.078125 C 207.976562 139.738281 208.296875 140.410156 208.582031 141.101562 C 208.867188 141.792969 209.121094 142.496094 209.335938 143.214844 C 209.554688 143.929688 209.734375 144.65625 209.882812 145.386719 C 210.027344 146.121094 210.136719 146.859375 210.210938 147.605469 C 210.285156 148.351562 210.320312 149.097656 210.320312 149.84375 Z M 210.320312 149.84375 " fill-opacity="1" fill-rule="nonzero"/><path fill="#c4e5f2" d="M 171.597656 147.25 C 173.332031 135.835938 184.070312 127.816406 196.382812 128.132812 C 195.609375 127.808594 194.824219 127.523438 194.019531 127.285156 C 193.214844 127.042969 192.398438 126.847656 191.574219 126.699219 C 190.75 126.546875 189.917969 126.441406 189.082031 126.382812 C 188.246094 126.324219 187.40625 126.3125 186.570312 126.347656 C 185.730469 126.378906 184.898438 126.460938 184.066406 126.585938 C 183.238281 126.710938 182.417969 126.882812 181.609375 127.097656 C 180.796875 127.3125 180 127.574219 179.21875 127.875 C 178.4375 128.179688 177.671875 128.527344 176.929688 128.914062 C 176.183594 129.300781 175.464844 129.730469 174.769531 130.195312 C 174.070312 130.664062 173.402344 131.167969 172.761719 131.707031 C 172.121094 132.25 171.511719 132.824219 170.933594 133.433594 C 170.355469 134.039062 169.8125 134.679688 169.304688 135.347656 C 168.796875 136.015625 168.324219 136.707031 167.894531 137.425781 C 167.464844 138.148438 167.074219 138.886719 166.722656 139.652344 C 166.375 140.414062 166.066406 141.195312 165.804688 141.988281 C 165.539062 142.785156 165.320312 143.59375 165.144531 144.414062 C 164.96875 145.238281 164.839844 146.0625 164.757812 146.898438 C 164.675781 147.734375 164.636719 148.570312 164.644531 149.410156 C 164.65625 150.25 164.710938 151.085938 164.808594 151.917969 C 164.910156 152.75 165.058594 153.574219 165.25 154.394531 C 165.441406 155.210938 165.675781 156.015625 165.957031 156.804688 C 166.238281 157.59375 166.558594 158.367188 166.925781 159.125 C 167.292969 159.878906 167.695312 160.613281 168.144531 161.324219 C 168.589844 162.035156 169.074219 162.71875 169.59375 163.375 C 170.117188 164.03125 170.671875 164.660156 171.261719 165.253906 C 171.851562 165.851562 172.476562 166.410156 173.128906 166.9375 C 173.78125 167.464844 174.460938 167.957031 175.164062 168.410156 C 175.871094 168.863281 176.601562 169.273438 177.351562 169.644531 C 178.105469 170.019531 178.875 170.347656 179.664062 170.636719 C 180.453125 170.921875 181.253906 171.167969 182.066406 171.363281 C 182.882812 171.5625 183.707031 171.71875 184.539062 171.824219 C 185.371094 171.933594 186.207031 171.996094 187.042969 172.011719 C 176.628906 167.917969 169.988281 157.828125 171.597656 147.25 Z M 171.597656 147.25 " fill-opacity="1" fill-rule="nonzero"/><path fill="#231f20" d="M 187.484375 174.050781 C 174.140625 174.050781 163.285156 163.191406 163.285156 149.84375 C 163.285156 136.496094 174.140625 125.640625 187.484375 125.640625 C 200.828125 125.640625 211.683594 136.5 211.683594 149.84375 C 211.683594 163.191406 200.828125 174.050781 187.484375 174.050781 Z M 187.484375 128.367188 C 186.78125 128.367188 186.078125 128.398438 185.378906 128.46875 C 184.679688 128.539062 183.984375 128.640625 183.292969 128.777344 C 182.605469 128.914062 181.921875 129.085938 181.25 129.289062 C 180.578125 129.496094 179.914062 129.730469 179.265625 130 C 178.617188 130.269531 177.980469 130.570312 177.359375 130.902344 C 176.742188 131.234375 176.136719 131.59375 175.554688 131.984375 C 174.96875 132.375 174.402344 132.792969 173.859375 133.242188 C 173.316406 133.6875 172.796875 134.160156 172.300781 134.65625 C 171.800781 135.152344 171.328125 135.675781 170.882812 136.21875 C 170.4375 136.761719 170.019531 137.328125 169.628906 137.910156 C 169.238281 138.496094 168.875 139.097656 168.546875 139.71875 C 168.214844 140.339844 167.914062 140.976562 167.644531 141.625 C 167.375 142.273438 167.136719 142.9375 166.933594 143.609375 C 166.730469 144.28125 166.558594 144.964844 166.421875 145.652344 C 166.285156 146.34375 166.183594 147.039062 166.113281 147.738281 C 166.042969 148.4375 166.007812 149.140625 166.007812 149.84375 C 166.007812 150.546875 166.042969 151.25 166.113281 151.949219 C 166.179688 152.648438 166.285156 153.34375 166.421875 154.035156 C 166.558594 154.726562 166.730469 155.40625 166.933594 156.078125 C 167.136719 156.753906 167.375 157.414062 167.644531 158.0625 C 167.914062 158.714844 168.214844 159.347656 168.546875 159.96875 C 168.875 160.589844 169.238281 161.191406 169.628906 161.777344 C 170.019531 162.363281 170.4375 162.925781 170.882812 163.46875 C 171.328125 164.015625 171.800781 164.535156 172.300781 165.03125 C 172.796875 165.53125 173.316406 166 173.859375 166.449219 C 174.402344 166.894531 174.96875 167.3125 175.554688 167.703125 C 176.136719 168.09375 176.742188 168.457031 177.359375 168.789062 C 177.980469 169.117188 178.617188 169.417969 179.265625 169.6875 C 179.914062 169.957031 180.578125 170.195312 181.25 170.398438 C 181.921875 170.601562 182.605469 170.773438 183.292969 170.910156 C 183.984375 171.046875 184.679688 171.152344 185.378906 171.21875 C 186.078125 171.289062 186.78125 171.324219 187.484375 171.324219 C 188.1875 171.324219 188.886719 171.289062 189.589844 171.21875 C 190.289062 171.152344 190.984375 171.046875 191.671875 170.910156 C 192.363281 170.773438 193.042969 170.601562 193.71875 170.398438 C 194.390625 170.195312 195.050781 169.957031 195.703125 169.6875 C 196.351562 169.417969 196.984375 169.117188 197.605469 168.789062 C 198.226562 168.457031 198.828125 168.09375 199.414062 167.703125 C 200 167.3125 200.5625 166.894531 201.105469 166.449219 C 201.648438 166 202.171875 165.53125 202.667969 165.03125 C 203.164062 164.535156 203.636719 164.015625 204.082031 163.46875 C 204.53125 162.925781 204.949219 162.363281 205.339844 161.777344 C 205.730469 161.191406 206.089844 160.589844 206.421875 159.96875 C 206.753906 159.347656 207.054688 158.714844 207.324219 158.0625 C 207.59375 157.414062 207.828125 156.753906 208.03125 156.078125 C 208.238281 155.40625 208.40625 154.726562 208.546875 154.035156 C 208.683594 153.34375 208.785156 152.648438 208.855469 151.949219 C 208.921875 151.25 208.957031 150.546875 208.957031 149.84375 C 208.957031 149.140625 208.921875 148.441406 208.851562 147.738281 C 208.78125 147.039062 208.679688 146.34375 208.542969 145.65625 C 208.402344 144.964844 208.230469 144.285156 208.027344 143.613281 C 207.824219 142.9375 207.585938 142.277344 207.316406 141.628906 C 207.046875 140.980469 206.746094 140.34375 206.414062 139.722656 C 206.082031 139.105469 205.722656 138.5 205.332031 137.917969 C 204.941406 137.332031 204.523438 136.769531 204.074219 136.226562 C 203.628906 135.679688 203.15625 135.160156 202.660156 134.664062 C 202.164062 134.167969 201.644531 133.695312 201.101562 133.25 C 200.558594 132.800781 199.992188 132.382812 199.410156 131.992188 C 198.824219 131.601562 198.222656 131.242188 197.601562 130.910156 C 196.980469 130.578125 196.347656 130.277344 195.699219 130.007812 C 195.046875 129.738281 194.386719 129.5 193.714844 129.296875 C 193.042969 129.089844 192.359375 128.917969 191.671875 128.78125 C 190.980469 128.644531 190.289062 128.539062 189.585938 128.472656 C 188.886719 128.402344 188.1875 128.367188 187.484375 128.367188 Z M 187.484375 128.367188 " fill-opacity="1" fill-rule="nonzero"/><path fill="#f5929f" d="M 215.125 131.472656 L 224.617188 131.472656 L 224.617188 136.777344 L 215.125 136.777344 Z M 215.125 131.472656 " fill-opacity="1" fill-rule="nonzero"/><path fill="#231f20" d="M 226.570312 135.488281 L 215.757812 135.488281 L 215.757812 133.046875 L 226.570312 133.046875 C 226.753906 133.046875 226.925781 133.015625 227.09375 132.945312 C 227.261719 132.875 227.40625 132.777344 227.535156 132.648438 C 227.664062 132.523438 227.761719 132.375 227.832031 132.207031 C 227.898438 132.039062 227.933594 131.867188 227.933594 131.6875 C 227.933594 131.503906 227.898438 131.332031 227.832031 131.164062 C 227.761719 130.996094 227.664062 130.851562 227.535156 130.722656 C 227.40625 130.59375 227.261719 130.496094 227.09375 130.425781 C 226.925781 130.359375 226.753906 130.324219 226.570312 130.324219 L 214.394531 130.324219 C 214.214844 130.324219 214.039062 130.359375 213.871094 130.425781 C 213.707031 130.496094 213.558594 130.59375 213.429688 130.722656 C 213.304688 130.851562 213.203125 130.996094 213.136719 131.164062 C 213.066406 131.332031 213.03125 131.503906 213.03125 131.6875 L 213.03125 136.851562 C 213.03125 137.03125 213.066406 137.207031 213.136719 137.375 C 213.203125 137.539062 213.304688 137.6875 213.429688 137.816406 C 213.558594 137.945312 213.707031 138.042969 213.871094 138.109375 C 214.039062 138.179688 214.214844 138.214844 214.394531 138.214844 L 226.570312 138.214844 C 226.753906 138.214844 226.925781 138.179688 227.09375 138.109375 C 227.261719 138.042969 227.40625 137.945312 227.535156 137.816406 C 227.664062 137.6875 227.761719 137.539062 227.832031 137.375 C 227.898438 137.207031 227.933594 137.03125 227.933594 136.851562 C 227.933594 136.671875 227.898438 136.496094 227.832031 136.332031 C 227.761719 136.164062 227.664062 136.015625 227.535156 135.886719 C 227.40625 135.761719 227.261719 135.664062 227.09375 135.59375 C 226.925781 135.523438 226.753906 135.488281 226.570312 135.488281 Z M 226.570312 135.488281 " fill-opacity="1" fill-rule="nonzero"/><path fill="#f8f5bb" d="M 224.390625 153.253906 C 224.390625 153.773438 224.292969 154.269531 224.09375 154.75 C 223.894531 155.230469 223.613281 155.652344 223.246094 156.019531 C 222.878906 156.382812 222.457031 156.667969 221.980469 156.867188 C 221.5 157.0625 221 157.164062 220.484375 157.164062 C 219.964844 157.164062 219.464844 157.0625 218.988281 156.867188 C 218.507812 156.667969 218.085938 156.382812 217.71875 156.019531 C 217.351562 155.652344 217.070312 155.230469 216.871094 154.75 C 216.671875 154.269531 216.574219 153.773438 216.574219 153.253906 C 216.574219 152.734375 216.671875 152.234375 216.871094 151.757812 C 217.070312 151.277344 217.351562 150.855469 217.71875 150.488281 C 218.085938 150.121094 218.507812 149.839844 218.988281 149.640625 C 219.464844 149.441406 219.964844 149.34375 220.484375 149.34375 C 221 149.34375 221.5 149.441406 221.980469 149.640625 C 222.457031 149.839844 222.878906 150.121094 223.246094 150.488281 C 223.613281 150.855469 223.894531 151.277344 224.09375 151.757812 C 224.292969 152.234375 224.390625 152.734375 224.390625 153.253906 Z M 224.390625 153.253906 " fill-opacity="1" fill-rule="nonzero"/><path fill="#231f20" d="M 220.484375 158.527344 C 220.136719 158.527344 219.792969 158.492188 219.457031 158.425781 C 219.117188 158.355469 218.785156 158.257812 218.464844 158.125 C 218.148438 157.992188 217.84375 157.828125 217.554688 157.636719 C 217.265625 157.445312 217 157.226562 216.757812 156.980469 C 216.511719 156.738281 216.292969 156.46875 216.101562 156.183594 C 215.910156 155.894531 215.746094 155.589844 215.613281 155.269531 C 215.480469 154.953125 215.382812 154.621094 215.3125 154.28125 C 215.246094 153.941406 215.210938 153.597656 215.210938 153.253906 C 215.210938 152.90625 215.246094 152.5625 215.3125 152.226562 C 215.382812 151.886719 215.480469 151.554688 215.613281 151.234375 C 215.746094 150.914062 215.90625 150.613281 216.101562 150.324219 C 216.292969 150.035156 216.511719 149.769531 216.757812 149.523438 C 217 149.28125 217.265625 149.0625 217.554688 148.871094 C 217.84375 148.675781 218.144531 148.515625 218.464844 148.382812 C 218.785156 148.25 219.117188 148.148438 219.453125 148.082031 C 219.792969 148.015625 220.136719 147.980469 220.484375 147.980469 C 220.828125 147.980469 221.171875 148.015625 221.511719 148.082031 C 221.851562 148.148438 222.179688 148.25 222.5 148.382812 C 222.820312 148.515625 223.125 148.675781 223.410156 148.871094 C 223.699219 149.0625 223.964844 149.28125 224.210938 149.523438 C 224.457031 149.769531 224.675781 150.035156 224.867188 150.324219 C 225.058594 150.613281 225.222656 150.914062 225.355469 151.234375 C 225.484375 151.554688 225.585938 151.886719 225.652344 152.226562 C 225.722656 152.5625 225.753906 152.90625 225.753906 153.253906 C 225.753906 153.597656 225.71875 153.941406 225.652344 154.28125 C 225.585938 154.621094 225.484375 154.949219 225.351562 155.269531 C 225.21875 155.589844 225.058594 155.894531 224.863281 156.179688 C 224.671875 156.46875 224.453125 156.734375 224.210938 156.980469 C 223.964844 157.222656 223.699219 157.441406 223.410156 157.636719 C 223.125 157.828125 222.820312 157.992188 222.5 158.121094 C 222.179688 158.253906 221.851562 158.355469 221.511719 158.421875 C 221.171875 158.492188 220.828125 158.527344 220.484375 158.527344 Z M 220.484375 150.707031 C 220.144531 150.707031 219.820312 150.769531 219.507812 150.902344 C 219.195312 151.03125 218.921875 151.214844 218.683594 151.453125 C 218.445312 151.691406 218.261719 151.96875 218.132812 152.277344 C 218 152.589844 217.9375 152.914062 217.9375 153.253906 C 217.9375 153.589844 218 153.917969 218.132812 154.226562 C 218.261719 154.539062 218.445312 154.816406 218.683594 155.054688 C 218.921875 155.292969 219.195312 155.476562 219.507812 155.605469 C 219.820312 155.734375 220.144531 155.800781 220.484375 155.800781 C 220.820312 155.800781 221.144531 155.734375 221.457031 155.605469 C 221.769531 155.476562 222.046875 155.292969 222.285156 155.054688 C 222.523438 154.816406 222.707031 154.539062 222.835938 154.226562 C 222.964844 153.917969 223.03125 153.589844 223.03125 153.253906 C 223.03125 152.917969 222.964844 152.589844 222.835938 152.28125 C 222.707031 151.96875 222.523438 151.691406 222.285156 151.453125 C 222.042969 151.214844 221.769531 151.03125 221.457031 150.902344 C 221.144531 150.773438 220.820312 150.707031 220.484375 150.707031 Z M 220.484375 150.707031 " fill-opacity="1" fill-rule="nonzero"/><path fill="#231f20" d="M 231.910156 178.914062 L 158.71875 178.914062 C 158.535156 178.914062 158.363281 178.878906 158.195312 178.808594 C 158.027344 178.738281 157.882812 178.640625 157.753906 178.511719 C 157.625 178.386719 157.527344 178.238281 157.457031 178.070312 C 157.390625 177.902344 157.355469 177.730469 157.355469 177.550781 C 157.355469 177.367188 157.390625 177.195312 157.457031 177.027344 C 157.527344 176.859375 157.625 176.714844 157.753906 176.585938 C 157.882812 176.457031 158.027344 176.359375 158.195312 176.289062 C 158.363281 176.222656 158.535156 176.1875 158.71875 176.1875 L 231.910156 176.1875 C 232.089844 176.1875 232.265625 176.222656 232.429688 176.289062 C 232.597656 176.359375 232.746094 176.457031 232.875 176.585938 C 233 176.714844 233.101562 176.859375 233.167969 177.027344 C 233.238281 177.195312 233.273438 177.367188 233.273438 177.550781 C 233.273438 177.730469 233.238281 177.902344 233.167969 178.070312 C 233.101562 178.238281 233 178.386719 232.875 178.511719 C 232.746094 178.640625 232.597656 178.738281 232.429688 178.808594 C 232.265625 178.878906 232.089844 178.914062 231.910156 178.914062 Z M 231.910156 178.914062 " fill-opacity="1" fill-rule="nonzero"/><path fill="#f5929f" d="M 203.558594 197.265625 L 199.296875 189.886719 L 175.949219 189.886719 L 171.6875 197.265625 Z M 203.558594 197.265625 " fill-opacity="1" fill-rule="nonzero"/><path fill="#231f20" d="M 205.917969 198.628906 L 169.328125 198.628906 L 175.160156 188.523438 L 200.085938 188.523438 Z M 174.046875 195.902344 L 201.199219 195.902344 L 198.511719 191.246094 L 176.734375 191.246094 Z M 174.046875 195.902344 " fill-opacity="1" fill-rule="nonzero"/><path fill="#f5929f" d="M 165.363281 197.148438 L 209.601562 197.148438 C 209.878906 197.148438 210.140625 197.199219 210.394531 197.304688 C 210.648438 197.410156 210.875 197.558594 211.070312 197.753906 C 211.261719 197.949219 211.414062 198.171875 211.519531 198.425781 C 211.625 198.683594 211.675781 198.945312 211.675781 199.222656 L 211.675781 200.765625 C 211.675781 201.039062 211.625 201.304688 211.519531 201.558594 C 211.414062 201.8125 211.261719 202.039062 211.070312 202.230469 C 210.875 202.425781 210.648438 202.578125 210.394531 202.679688 C 210.140625 202.785156 209.878906 202.839844 209.601562 202.839844 L 165.363281 202.839844 C 165.089844 202.839844 164.824219 202.785156 164.570312 202.679688 C 164.316406 202.578125 164.09375 202.425781 163.898438 202.230469 C 163.703125 202.039062 163.554688 201.8125 163.449219 201.558594 C 163.34375 201.304688 163.292969 201.039062 163.292969 200.765625 L 163.292969 199.222656 C 163.292969 198.945312 163.34375 198.683594 163.449219 198.425781 C 163.554688 198.171875 163.703125 197.949219 163.898438 197.753906 C 164.09375 197.558594 164.316406 197.410156 164.570312 197.304688 C 164.824219 197.199219 165.089844 197.148438 165.363281 197.148438 Z M 165.363281 197.148438 " fill-opacity="1" fill-rule="nonzero"/><g clip-path="url(#10b873c75c)"><path fill="#231f20" d="M 209.601562 204.203125 L 165.363281 204.203125 C 164.910156 204.203125 164.472656 204.113281 164.050781 203.9375 C 163.628906 203.765625 163.257812 203.515625 162.9375 203.195312 C 162.613281 202.871094 162.367188 202.5 162.191406 202.078125 C 162.015625 201.660156 161.929688 201.222656 161.929688 200.765625 L 161.929688 199.222656 C 161.929688 198.765625 162.015625 198.328125 162.191406 197.90625 C 162.367188 197.488281 162.613281 197.113281 162.9375 196.792969 C 163.257812 196.472656 163.628906 196.222656 164.050781 196.046875 C 164.472656 195.875 164.910156 195.785156 165.363281 195.785156 L 209.601562 195.785156 C 210.058594 195.785156 210.496094 195.875 210.917969 196.046875 C 211.335938 196.222656 211.707031 196.472656 212.03125 196.792969 C 212.351562 197.113281 212.601562 197.488281 212.777344 197.90625 C 212.949219 198.328125 213.039062 198.765625 213.039062 199.222656 L 213.039062 200.765625 C 213.039062 201.222656 212.949219 201.660156 212.777344 202.082031 C 212.601562 202.5 212.351562 202.871094 212.03125 203.195312 C 211.707031 203.515625 211.335938 203.765625 210.917969 203.9375 C 210.496094 204.113281 210.058594 204.203125 209.601562 204.203125 Z M 165.363281 198.511719 C 165.167969 198.511719 165 198.578125 164.863281 198.71875 C 164.722656 198.855469 164.652344 199.023438 164.652344 199.222656 L 164.652344 200.765625 C 164.652344 200.960938 164.722656 201.128906 164.863281 201.269531 C 165 201.40625 165.167969 201.476562 165.363281 201.476562 L 209.601562 201.476562 C 209.800781 201.476562 209.964844 201.40625 210.105469 201.269531 C 210.242188 201.128906 210.3125 200.960938 210.3125 200.765625 L 210.3125 199.222656 C 210.3125 199.027344 210.242188 198.859375 210.105469 198.71875 C 209.964844 198.582031 209.800781 198.511719 209.601562 198.511719 Z M 165.363281 198.511719 " fill-opacity="1" fill-rule="nonzero"/></g><g fill="#231f20" fill-opacity="1"><g transform="translate(31.133837, 237.180205)"><g><path d="M 17.234375 -11.1875 L 21.828125 -11.1875 L 21.828125 -2.390625 C 20.648438 -1.492188 19.285156 -0.804688 17.734375 -0.328125 C 16.179688 0.140625 14.617188 0.375 13.046875 0.375 C 10.796875 0.375 8.769531 -0.101562 6.96875 -1.0625 C 5.175781 -2.03125 3.765625 -3.363281 2.734375 -5.0625 C 1.710938 -6.769531 1.203125 -8.695312 1.203125 -10.84375 C 1.203125 -13 1.710938 -14.925781 2.734375 -16.625 C 3.765625 -18.332031 5.1875 -19.664062 7 -20.625 C 8.820312 -21.59375 10.867188 -22.078125 13.140625 -22.078125 C 15.046875 -22.078125 16.769531 -21.753906 18.3125 -21.109375 C 19.863281 -20.472656 21.171875 -19.546875 22.234375 -18.328125 L 19 -15.34375 C 17.445312 -16.976562 15.578125 -17.796875 13.390625 -17.796875 C 12.003906 -17.796875 10.773438 -17.503906 9.703125 -16.921875 C 8.628906 -16.347656 7.789062 -15.53125 7.1875 -14.46875 C 6.59375 -13.414062 6.296875 -12.207031 6.296875 -10.84375 C 6.296875 -9.5 6.59375 -8.300781 7.1875 -7.25 C 7.789062 -6.195312 8.625 -5.375 9.6875 -4.78125 C 10.75 -4.195312 11.960938 -3.90625 13.328125 -3.90625 C 14.773438 -3.90625 16.078125 -4.21875 17.234375 -4.84375 Z M 17.234375 -11.1875 "/></g></g></g><g fill="#231f20" fill-opacity="1"><g transform="translate(57.015865, 237.180205)"><g><path d="M 16.859375 -4.65625 L 6.78125 -4.65625 L 4.859375 0 L -0.28125 0 L 9.390625 -21.703125 L 14.359375 -21.703125 L 24.0625 0 L 18.78125 0 Z M 15.28125 -8.46875 L 11.84375 -16.765625 L 8.40625 -8.46875 Z M 15.28125 -8.46875 "/></g></g></g><g fill="#231f20" fill-opacity="1"><g transform="translate(82.742917, 237.180205)"><g><path d="M 18.5 -11.28125 C 19.738281 -10.882812 20.707031 -10.226562 21.40625 -9.3125 C 22.113281 -8.394531 22.46875 -7.265625 22.46875 -5.921875 C 22.46875 -4.015625 21.726562 -2.550781 20.25 -1.53125 C 18.78125 -0.507812 16.628906 0 13.796875 0 L 2.578125 0 L 2.578125 -21.703125 L 13.171875 -21.703125 C 15.816406 -21.703125 17.847656 -21.191406 19.265625 -20.171875 C 20.679688 -19.160156 21.390625 -17.789062 21.390625 -16.0625 C 21.390625 -15.007812 21.132812 -14.066406 20.625 -13.234375 C 20.125 -12.410156 19.414062 -11.757812 18.5 -11.28125 Z M 7.5625 -17.921875 L 7.5625 -12.796875 L 12.5625 -12.796875 C 13.800781 -12.796875 14.738281 -13.015625 15.375 -13.453125 C 16.019531 -13.890625 16.34375 -14.53125 16.34375 -15.375 C 16.34375 -16.21875 16.019531 -16.851562 15.375 -17.28125 C 14.738281 -17.707031 13.800781 -17.921875 12.5625 -17.921875 Z M 13.421875 -3.78125 C 14.742188 -3.78125 15.738281 -3.992188 16.40625 -4.421875 C 17.082031 -4.859375 17.421875 -5.535156 17.421875 -6.453125 C 17.421875 -8.242188 16.085938 -9.140625 13.421875 -9.140625 L 7.5625 -9.140625 L 7.5625 -3.78125 Z M 13.421875 -3.78125 "/></g></g></g><g fill="#231f20" fill-opacity="1"><g transform="translate(108.438981, 237.180205)"><g><path d="M 16.40625 0 L 12.21875 -6.046875 L 7.59375 -6.046875 L 7.59375 0 L 2.578125 0 L 2.578125 -21.703125 L 11.96875 -21.703125 C 13.882812 -21.703125 15.550781 -21.378906 16.96875 -20.734375 C 18.382812 -20.097656 19.472656 -19.191406 20.234375 -18.015625 C 21.003906 -16.835938 21.390625 -15.441406 21.390625 -13.828125 C 21.390625 -12.210938 21 -10.820312 20.21875 -9.65625 C 19.445312 -8.488281 18.347656 -7.59375 16.921875 -6.96875 L 21.796875 0 Z M 16.3125 -13.828125 C 16.3125 -15.046875 15.914062 -15.976562 15.125 -16.625 C 14.34375 -17.28125 13.195312 -17.609375 11.6875 -17.609375 L 7.59375 -17.609375 L 7.59375 -10.046875 L 11.6875 -10.046875 C 13.195312 -10.046875 14.34375 -10.375 15.125 -11.03125 C 15.914062 -11.695312 16.3125 -12.628906 16.3125 -13.828125 Z M 16.3125 -13.828125 "/></g></g></g><g fill="#231f20" fill-opacity="1"><g transform="translate(133.20515, 237.180205)"><g><path d="M 2.578125 -21.703125 L 7.59375 -21.703125 L 7.59375 0 L 2.578125 0 Z M 2.578125 -21.703125 "/></g></g></g><g fill="#231f20" fill-opacity="1"><g transform="translate(145.355891, 237.180205)"><g><path d="M 19.375 -4.03125 L 19.375 0 L 2.578125 0 L 2.578125 -21.703125 L 18.96875 -21.703125 L 18.96875 -17.671875 L 7.5625 -17.671875 L 7.5625 -12.953125 L 17.640625 -12.953125 L 17.640625 -9.046875 L 7.5625 -9.046875 L 7.5625 -4.03125 Z M 19.375 -4.03125 "/></g></g></g><g fill="#231f20" fill-opacity="1"><g transform="translate(168.138307, 237.180205)"><g><path d="M 2.578125 -21.703125 L 7.59375 -21.703125 L 7.59375 -4.09375 L 18.46875 -4.09375 L 18.46875 0 L 2.578125 0 Z M 2.578125 -21.703125 "/></g></g></g><g fill="#231f20" fill-opacity="1"><g transform="translate(188.843986, 237.180205)"><g/></g></g><g fill="#231f20" fill-opacity="1"><g transform="translate(199.599898, 237.180205)"><g><path d="M 12.953125 0.375 C 10.742188 0.375 8.742188 -0.101562 6.953125 -1.0625 C 5.171875 -2.03125 3.765625 -3.363281 2.734375 -5.0625 C 1.710938 -6.769531 1.203125 -8.695312 1.203125 -10.84375 C 1.203125 -13 1.710938 -14.925781 2.734375 -16.625 C 3.765625 -18.332031 5.171875 -19.664062 6.953125 -20.625 C 8.742188 -21.59375 10.753906 -22.078125 12.984375 -22.078125 C 14.867188 -22.078125 16.566406 -21.742188 18.078125 -21.078125 C 19.597656 -20.421875 20.878906 -19.472656 21.921875 -18.234375 L 18.6875 -15.25 C 17.21875 -16.945312 15.398438 -17.796875 13.234375 -17.796875 C 11.890625 -17.796875 10.691406 -17.5 9.640625 -16.90625 C 8.585938 -16.320312 7.765625 -15.5 7.171875 -14.4375 C 6.585938 -13.382812 6.296875 -12.1875 6.296875 -10.84375 C 6.296875 -9.5 6.585938 -8.300781 7.171875 -7.25 C 7.765625 -6.195312 8.585938 -5.375 9.640625 -4.78125 C 10.691406 -4.195312 11.890625 -3.90625 13.234375 -3.90625 C 15.398438 -3.90625 17.21875 -4.765625 18.6875 -6.484375 L 21.921875 -3.5 C 20.878906 -2.238281 19.59375 -1.273438 18.0625 -0.609375 C 16.539062 0.046875 14.835938 0.375 12.953125 0.375 Z M 12.953125 0.375 "/></g></g></g><g fill="#231f20" fill-opacity="1"><g transform="translate(224.304074, 237.180205)"><g><path d="M 16.859375 -4.65625 L 6.78125 -4.65625 L 4.859375 0 L -0.28125 0 L 9.390625 -21.703125 L 14.359375 -21.703125 L 24.0625 0 L 18.78125 0 Z M 15.28125 -8.46875 L 11.84375 -16.765625 L 8.40625 -8.46875 Z M 15.28125 -8.46875 "/></g></g></g><g fill="#231f20" fill-opacity="1"><g transform="translate(250.031123, 237.180205)"><g><path d="M 9.703125 0.375 C 7.984375 0.375 6.320312 0.144531 4.71875 -0.3125 C 3.125 -0.78125 1.84375 -1.390625 0.875 -2.140625 L 2.578125 -5.921875 C 3.503906 -5.234375 4.609375 -4.679688 5.890625 -4.265625 C 7.171875 -3.859375 8.453125 -3.65625 9.734375 -3.65625 C 11.160156 -3.65625 12.210938 -3.863281 12.890625 -4.28125 C 13.578125 -4.707031 13.921875 -5.273438 13.921875 -5.984375 C 13.921875 -6.503906 13.71875 -6.929688 13.3125 -7.265625 C 12.90625 -7.609375 12.382812 -7.882812 11.75 -8.09375 C 11.125 -8.300781 10.273438 -8.523438 9.203125 -8.765625 C 7.554688 -9.160156 6.203125 -9.554688 5.140625 -9.953125 C 4.085938 -10.347656 3.179688 -10.976562 2.421875 -11.84375 C 1.671875 -12.707031 1.296875 -13.863281 1.296875 -15.3125 C 1.296875 -16.570312 1.632812 -17.710938 2.3125 -18.734375 C 3 -19.765625 4.03125 -20.578125 5.40625 -21.171875 C 6.78125 -21.773438 8.460938 -22.078125 10.453125 -22.078125 C 11.835938 -22.078125 13.1875 -21.910156 14.5 -21.578125 C 15.820312 -21.242188 16.984375 -20.769531 17.984375 -20.15625 L 16.4375 -16.34375 C 14.425781 -17.476562 12.421875 -18.046875 10.421875 -18.046875 C 9.015625 -18.046875 7.972656 -17.816406 7.296875 -17.359375 C 6.628906 -16.898438 6.296875 -16.300781 6.296875 -15.5625 C 6.296875 -14.820312 6.679688 -14.269531 7.453125 -13.90625 C 8.234375 -13.539062 9.414062 -13.179688 11 -12.828125 C 12.65625 -12.441406 14.007812 -12.050781 15.0625 -11.65625 C 16.113281 -11.257812 17.015625 -10.640625 17.765625 -9.796875 C 18.523438 -8.953125 18.90625 -7.804688 18.90625 -6.359375 C 18.90625 -5.117188 18.554688 -3.984375 17.859375 -2.953125 C 17.171875 -1.929688 16.132812 -1.117188 14.75 -0.515625 C 13.363281 0.078125 11.679688 0.375 9.703125 0.375 Z M 9.703125 0.375 "/></g></g></g><g fill="#231f20" fill-opacity="1"><g transform="translate(271.790666, 237.180205)"><g><path d="M 7.0625 -17.609375 L 0.125 -17.609375 L 0.125 -21.703125 L 19.03125 -21.703125 L 19.03125 -17.609375 L 12.09375 -17.609375 L 12.09375 0 L 7.0625 0 Z M 7.0625 -17.609375 "/></g></g></g><g fill="#231f20" fill-opacity="1"><g transform="translate(292.930282, 237.180205)"><g><path d="M 16.40625 0 L 12.21875 -6.046875 L 7.59375 -6.046875 L 7.59375 0 L 2.578125 0 L 2.578125 -21.703125 L 11.96875 -21.703125 C 13.882812 -21.703125 15.550781 -21.378906 16.96875 -20.734375 C 18.382812 -20.097656 19.472656 -19.191406 20.234375 -18.015625 C 21.003906 -16.835938 21.390625 -15.441406 21.390625 -13.828125 C 21.390625 -12.210938 21 -10.820312 20.21875 -9.65625 C 19.445312 -8.488281 18.347656 -7.59375 16.921875 -6.96875 L 21.796875 0 Z M 16.3125 -13.828125 C 16.3125 -15.046875 15.914062 -15.976562 15.125 -16.625 C 14.34375 -17.28125 13.195312 -17.609375 11.6875 -17.609375 L 7.59375 -17.609375 L 7.59375 -10.046875 L 11.6875 -10.046875 C 13.195312 -10.046875 14.34375 -10.375 15.125 -11.03125 C 15.914062 -11.695312 16.3125 -12.628906 16.3125 -13.828125 Z M 16.3125 -13.828125 "/></g></g></g><g fill="#231f20" fill-opacity="1"><g transform="translate(317.696463, 237.180205)"><g><path d="M 13.078125 0.375 C 10.828125 0.375 8.796875 -0.109375 6.984375 -1.078125 C 5.179688 -2.054688 3.765625 -3.394531 2.734375 -5.09375 C 1.710938 -6.800781 1.203125 -8.71875 1.203125 -10.84375 C 1.203125 -12.976562 1.710938 -14.894531 2.734375 -16.59375 C 3.765625 -18.300781 5.179688 -19.640625 6.984375 -20.609375 C 8.796875 -21.585938 10.828125 -22.078125 13.078125 -22.078125 C 15.335938 -22.078125 17.363281 -21.585938 19.15625 -20.609375 C 20.957031 -19.640625 22.375 -18.300781 23.40625 -16.59375 C 24.4375 -14.894531 24.953125 -12.976562 24.953125 -10.84375 C 24.953125 -8.71875 24.4375 -6.800781 23.40625 -5.09375 C 22.375 -3.394531 20.957031 -2.054688 19.15625 -1.078125 C 17.363281 -0.109375 15.335938 0.375 13.078125 0.375 Z M 13.078125 -3.90625 C 14.359375 -3.90625 15.515625 -4.195312 16.546875 -4.78125 C 17.585938 -5.375 18.398438 -6.195312 18.984375 -7.25 C 19.578125 -8.300781 19.875 -9.5 19.875 -10.84375 C 19.875 -12.1875 19.578125 -13.382812 18.984375 -14.4375 C 18.398438 -15.5 17.585938 -16.320312 16.546875 -16.90625 C 15.515625 -17.5 14.359375 -17.796875 13.078125 -17.796875 C 11.796875 -17.796875 10.640625 -17.5 9.609375 -16.90625 C 8.578125 -16.320312 7.765625 -15.5 7.171875 -14.4375 C 6.585938 -13.382812 6.296875 -12.1875 6.296875 -10.84375 C 6.296875 -9.5 6.585938 -8.300781 7.171875 -7.25 C 7.765625 -6.195312 8.578125 -5.375 9.609375 -4.78125 C 10.640625 -4.195312 11.796875 -3.90625 13.078125 -3.90625 Z M 13.078125 -3.90625 "/></g></g></g><g fill="#231f20" fill-opacity="1"><g transform="translate(50.316011, 262.480149)"><g><path d="M 6.265625 0.125 C 5.210938 0.125 4.265625 -0.109375 3.421875 -0.578125 C 2.578125 -1.046875 1.914062 -1.6875 1.4375 -2.5 C 0.957031 -3.3125 0.71875 -4.226562 0.71875 -5.25 C 0.71875 -6.269531 0.957031 -7.1875 1.4375 -8 C 1.914062 -8.8125 2.578125 -9.453125 3.421875 -9.921875 C 4.273438 -10.390625 5.226562 -10.625 6.28125 -10.625 C 7.101562 -10.625 7.851562 -10.484375 8.53125 -10.203125 C 9.21875 -9.929688 9.800781 -9.523438 10.28125 -8.984375 L 9.296875 -8.046875 C 8.503906 -8.867188 7.519531 -9.28125 6.34375 -9.28125 C 5.5625 -9.28125 4.851562 -9.101562 4.21875 -8.75 C 3.59375 -8.40625 3.101562 -7.925781 2.75 -7.3125 C 2.394531 -6.695312 2.21875 -6.007812 2.21875 -5.25 C 2.21875 -4.488281 2.394531 -3.800781 2.75 -3.1875 C 3.101562 -2.570312 3.59375 -2.085938 4.21875 -1.734375 C 4.851562 -1.390625 5.5625 -1.21875 6.34375 -1.21875 C 7.507812 -1.21875 8.492188 -1.632812 9.296875 -2.46875 L 10.28125 -1.53125 C 9.800781 -0.988281 9.21875 -0.578125 8.53125 -0.296875 C 7.84375 -0.015625 7.085938 0.125 6.265625 0.125 Z M 6.265625 0.125 "/></g></g></g><g fill="#231f20" fill-opacity="1"><g transform="translate(67.806235, 262.480149)"><g><path d="M 6.3125 0.125 C 5.25 0.125 4.289062 -0.109375 3.4375 -0.578125 C 2.59375 -1.046875 1.925781 -1.6875 1.4375 -2.5 C 0.957031 -3.320312 0.71875 -4.238281 0.71875 -5.25 C 0.71875 -6.257812 0.957031 -7.171875 1.4375 -7.984375 C 1.925781 -8.804688 2.59375 -9.453125 3.4375 -9.921875 C 4.289062 -10.390625 5.25 -10.625 6.3125 -10.625 C 7.363281 -10.625 8.3125 -10.390625 9.15625 -9.921875 C 10.007812 -9.453125 10.675781 -8.8125 11.15625 -8 C 11.632812 -7.1875 11.875 -6.269531 11.875 -5.25 C 11.875 -4.226562 11.632812 -3.3125 11.15625 -2.5 C 10.675781 -1.6875 10.007812 -1.046875 9.15625 -0.578125 C 8.3125 -0.109375 7.363281 0.125 6.3125 0.125 Z M 6.3125 -1.21875 C 7.082031 -1.21875 7.773438 -1.390625 8.390625 -1.734375 C 9.003906 -2.085938 9.488281 -2.570312 9.84375 -3.1875 C 10.195312 -3.800781 10.375 -4.488281 10.375 -5.25 C 10.375 -6.007812 10.195312 -6.695312 9.84375 -7.3125 C 9.488281 -7.925781 9.003906 -8.40625 8.390625 -8.75 C 7.773438 -9.101562 7.082031 -9.28125 6.3125 -9.28125 C 5.539062 -9.28125 4.84375 -9.101562 4.21875 -8.75 C 3.59375 -8.40625 3.101562 -7.925781 2.75 -7.3125 C 2.394531 -6.695312 2.21875 -6.007812 2.21875 -5.25 C 2.21875 -4.488281 2.394531 -3.800781 2.75 -3.1875 C 3.101562 -2.570312 3.59375 -2.085938 4.21875 -1.734375 C 4.84375 -1.390625 5.539062 -1.21875 6.3125 -1.21875 Z M 6.3125 -1.21875 "/></g></g></g><g fill="#231f20" fill-opacity="1"><g transform="translate(87.051457, 262.480149)"><g><path d="M 1.578125 -10.5 L 6 -10.5 C 7.113281 -10.5 8.097656 -10.28125 8.953125 -9.84375 C 9.816406 -9.40625 10.484375 -8.785156 10.953125 -7.984375 C 11.429688 -7.191406 11.671875 -6.28125 11.671875 -5.25 C 11.671875 -4.21875 11.429688 -3.300781 10.953125 -2.5 C 10.484375 -1.707031 9.816406 -1.09375 8.953125 -0.65625 C 8.097656 -0.21875 7.113281 0 6 0 L 1.578125 0 Z M 5.90625 -1.3125 C 6.757812 -1.3125 7.507812 -1.472656 8.15625 -1.796875 C 8.800781 -2.128906 9.296875 -2.59375 9.640625 -3.1875 C 9.992188 -3.78125 10.171875 -4.46875 10.171875 -5.25 C 10.171875 -6.03125 9.992188 -6.71875 9.640625 -7.3125 C 9.296875 -7.90625 8.800781 -8.363281 8.15625 -8.6875 C 7.507812 -9.019531 6.757812 -9.1875 5.90625 -9.1875 L 3.078125 -9.1875 L 3.078125 -1.3125 Z M 5.90625 -1.3125 "/></g></g></g><g fill="#231f20" fill-opacity="1"><g transform="translate(106.086682, 262.480149)"><g><path d="M 1.578125 -10.5 L 3.078125 -10.5 L 3.078125 0 L 1.578125 0 Z M 1.578125 -10.5 "/></g></g></g><g fill="#231f20" fill-opacity="1"><g transform="translate(117.381914, 262.480149)"><g><path d="M 10.609375 -10.5 L 10.609375 0 L 9.375 0 L 3.078125 -7.828125 L 3.078125 0 L 1.578125 0 L 1.578125 -10.5 L 2.8125 -10.5 L 9.109375 -2.671875 L 9.109375 -10.5 Z M 10.609375 -10.5 "/></g></g></g><g fill="#231f20" fill-opacity="1"><g transform="translate(136.207141, 262.480149)"><g><path d="M 8.84375 -5.3125 L 10.296875 -5.3125 L 10.296875 -1.21875 C 9.773438 -0.78125 9.164062 -0.445312 8.46875 -0.21875 C 7.78125 0.0078125 7.0625 0.125 6.3125 0.125 C 5.25 0.125 4.289062 -0.109375 3.4375 -0.578125 C 2.59375 -1.046875 1.925781 -1.6875 1.4375 -2.5 C 0.957031 -3.3125 0.71875 -4.226562 0.71875 -5.25 C 0.71875 -6.269531 0.957031 -7.1875 1.4375 -8 C 1.925781 -8.820312 2.597656 -9.460938 3.453125 -9.921875 C 4.304688 -10.390625 5.269531 -10.625 6.34375 -10.625 C 7.1875 -10.625 7.945312 -10.484375 8.625 -10.203125 C 9.3125 -9.929688 9.894531 -9.53125 10.375 -9 L 9.453125 -8.0625 C 8.609375 -8.875 7.59375 -9.28125 6.40625 -9.28125 C 5.601562 -9.28125 4.882812 -9.109375 4.25 -8.765625 C 3.613281 -8.421875 3.113281 -7.941406 2.75 -7.328125 C 2.394531 -6.710938 2.21875 -6.019531 2.21875 -5.25 C 2.21875 -4.488281 2.394531 -3.800781 2.75 -3.1875 C 3.113281 -2.570312 3.613281 -2.085938 4.25 -1.734375 C 4.882812 -1.390625 5.597656 -1.21875 6.390625 -1.21875 C 7.328125 -1.21875 8.144531 -1.441406 8.84375 -1.890625 Z M 8.84375 -5.3125 "/></g></g></g><g fill="#231f20" fill-opacity="1"><g transform="translate(154.432359, 262.480149)"><g/></g></g><g fill="#231f20" fill-opacity="1"><g transform="translate(165.11258, 262.480149)"><g><path d="M 8.265625 -2.625 L 2.6875 -2.625 L 1.53125 0 L -0.015625 0 L 4.734375 -10.5 L 6.21875 -10.5 L 11 0 L 9.421875 0 Z M 7.734375 -3.828125 L 5.46875 -8.96875 L 3.203125 -3.828125 Z M 7.734375 -3.828125 "/></g></g></g><g fill="#231f20" fill-opacity="1"><g transform="translate(182.737797, 262.480149)"><g><path d="M 10.609375 -10.5 L 10.609375 0 L 9.375 0 L 3.078125 -7.828125 L 3.078125 0 L 1.578125 0 L 1.578125 -10.5 L 2.8125 -10.5 L 9.109375 -2.671875 L 9.109375 -10.5 Z M 10.609375 -10.5 "/></g></g></g><g fill="#231f20" fill-opacity="1"><g transform="translate(201.563017, 262.480149)"><g><path d="M 1.578125 -10.5 L 6 -10.5 C 7.113281 -10.5 8.097656 -10.28125 8.953125 -9.84375 C 9.816406 -9.40625 10.484375 -8.785156 10.953125 -7.984375 C 11.429688 -7.191406 11.671875 -6.28125 11.671875 -5.25 C 11.671875 -4.21875 11.429688 -3.300781 10.953125 -2.5 C 10.484375 -1.707031 9.816406 -1.09375 8.953125 -0.65625 C 8.097656 -0.21875 7.113281 0 6 0 L 1.578125 0 Z M 5.90625 -1.3125 C 6.757812 -1.3125 7.507812 -1.472656 8.15625 -1.796875 C 8.800781 -2.128906 9.296875 -2.59375 9.640625 -3.1875 C 9.992188 -3.78125 10.171875 -4.46875 10.171875 -5.25 C 10.171875 -6.03125 9.992188 -6.71875 9.640625 -7.3125 C 9.296875 -7.90625 8.800781 -8.363281 8.15625 -8.6875 C 7.507812 -9.019531 6.757812 -9.1875 5.90625 -9.1875 L 3.078125 -9.1875 L 3.078125 -1.3125 Z M 5.90625 -1.3125 "/></g></g></g><g fill="#231f20" fill-opacity="1"><g transform="translate(220.598237, 262.480149)"><g/></g></g><g fill="#231f20" fill-opacity="1"><g transform="translate(231.278458, 262.480149)"><g><path d="M 1.578125 -10.5 L 6 -10.5 C 7.113281 -10.5 8.097656 -10.28125 8.953125 -9.84375 C 9.816406 -9.40625 10.484375 -8.785156 10.953125 -7.984375 C 11.429688 -7.191406 11.671875 -6.28125 11.671875 -5.25 C 11.671875 -4.21875 11.429688 -3.300781 10.953125 -2.5 C 10.484375 -1.707031 9.816406 -1.09375 8.953125 -0.65625 C 8.097656 -0.21875 7.113281 0 6 0 L 1.578125 0 Z M 5.90625 -1.3125 C 6.757812 -1.3125 7.507812 -1.472656 8.15625 -1.796875 C 8.800781 -2.128906 9.296875 -2.59375 9.640625 -3.1875 C 9.992188 -3.78125 10.171875 -4.46875 10.171875 -5.25 C 10.171875 -6.03125 9.992188 -6.71875 9.640625 -7.3125 C 9.296875 -7.90625 8.800781 -8.363281 8.15625 -8.6875 C 7.507812 -9.019531 6.757812 -9.1875 5.90625 -9.1875 L 3.078125 -9.1875 L 3.078125 -1.3125 Z M 5.90625 -1.3125 "/></g></g></g><g fill="#231f20" fill-opacity="1"><g transform="translate(250.313678, 262.480149)"><g><path d="M 9.1875 -1.3125 L 9.1875 0 L 1.578125 0 L 1.578125 -10.5 L 8.984375 -10.5 L 8.984375 -9.1875 L 3.078125 -9.1875 L 3.078125 -5.96875 L 8.34375 -5.96875 L 8.34375 -4.6875 L 3.078125 -4.6875 L 3.078125 -1.3125 Z M 9.1875 -1.3125 "/></g></g></g><g fill="#231f20" fill-opacity="1"><g transform="translate(267.008913, 262.480149)"><g><path d="M 4.640625 0.125 C 3.847656 0.125 3.082031 0.00390625 2.34375 -0.234375 C 1.613281 -0.484375 1.035156 -0.804688 0.609375 -1.203125 L 1.171875 -2.375 C 1.566406 -2.007812 2.078125 -1.710938 2.703125 -1.484375 C 3.328125 -1.265625 3.972656 -1.15625 4.640625 -1.15625 C 5.503906 -1.15625 6.148438 -1.300781 6.578125 -1.59375 C 7.015625 -1.894531 7.234375 -2.289062 7.234375 -2.78125 C 7.234375 -3.132812 7.113281 -3.421875 6.875 -3.640625 C 6.644531 -3.867188 6.351562 -4.039062 6 -4.15625 C 5.65625 -4.28125 5.171875 -4.421875 4.546875 -4.578125 C 3.753906 -4.765625 3.113281 -4.953125 2.625 -5.140625 C 2.144531 -5.335938 1.734375 -5.628906 1.390625 -6.015625 C 1.046875 -6.410156 0.875 -6.945312 0.875 -7.625 C 0.875 -8.175781 1.019531 -8.675781 1.3125 -9.125 C 1.601562 -9.582031 2.050781 -9.945312 2.65625 -10.21875 C 3.257812 -10.488281 4.003906 -10.625 4.890625 -10.625 C 5.503906 -10.625 6.113281 -10.539062 6.71875 -10.375 C 7.320312 -10.21875 7.835938 -9.988281 8.265625 -9.6875 L 7.765625 -8.484375 C 7.328125 -8.765625 6.859375 -8.976562 6.359375 -9.125 C 5.859375 -9.269531 5.367188 -9.34375 4.890625 -9.34375 C 4.035156 -9.34375 3.394531 -9.1875 2.96875 -8.875 C 2.550781 -8.570312 2.34375 -8.175781 2.34375 -7.6875 C 2.34375 -7.320312 2.460938 -7.023438 2.703125 -6.796875 C 2.941406 -6.578125 3.238281 -6.40625 3.59375 -6.28125 C 3.945312 -6.15625 4.429688 -6.019531 5.046875 -5.875 C 5.828125 -5.6875 6.457031 -5.5 6.9375 -5.3125 C 7.425781 -5.125 7.84375 -4.832031 8.1875 -4.4375 C 8.53125 -4.050781 8.703125 -3.523438 8.703125 -2.859375 C 8.703125 -2.316406 8.550781 -1.816406 8.25 -1.359375 C 7.945312 -0.898438 7.488281 -0.535156 6.875 -0.265625 C 6.269531 -0.00390625 5.523438 0.125 4.640625 0.125 Z M 4.640625 0.125 "/></g></g></g><g fill="#231f20" fill-opacity="1"><g transform="translate(282.96914, 262.480149)"><g><path d="M 1.578125 -10.5 L 3.078125 -10.5 L 3.078125 0 L 1.578125 0 Z M 1.578125 -10.5 "/></g></g></g><g fill="#231f20" fill-opacity="1"><g transform="translate(294.264367, 262.480149)"><g><path d="M 8.84375 -5.3125 L 10.296875 -5.3125 L 10.296875 -1.21875 C 9.773438 -0.78125 9.164062 -0.445312 8.46875 -0.21875 C 7.78125 0.0078125 7.0625 0.125 6.3125 0.125 C 5.25 0.125 4.289062 -0.109375 3.4375 -0.578125 C 2.59375 -1.046875 1.925781 -1.6875 1.4375 -2.5 C 0.957031 -3.3125 0.71875 -4.226562 0.71875 -5.25 C 0.71875 -6.269531 0.957031 -7.1875 1.4375 -8 C 1.925781 -8.820312 2.597656 -9.460938 3.453125 -9.921875 C 4.304688 -10.390625 5.269531 -10.625 6.34375 -10.625 C 7.1875 -10.625 7.945312 -10.484375 8.625 -10.203125 C 9.3125 -9.929688 9.894531 -9.53125 10.375 -9 L 9.453125 -8.0625 C 8.609375 -8.875 7.59375 -9.28125 6.40625 -9.28125 C 5.601562 -9.28125 4.882812 -9.109375 4.25 -8.765625 C 3.613281 -8.421875 3.113281 -7.941406 2.75 -7.328125 C 2.394531 -6.710938 2.21875 -6.019531 2.21875 -5.25 C 2.21875 -4.488281 2.394531 -3.800781 2.75 -3.1875 C 3.113281 -2.570312 3.613281 -2.085938 4.25 -1.734375 C 4.882812 -1.390625 5.597656 -1.21875 6.390625 -1.21875 C 7.328125 -1.21875 8.144531 -1.441406 8.84375 -1.890625 Z M 8.84375 -5.3125 "/></g></g></g><g fill="#231f20" fill-opacity="1"><g transform="translate(312.489585, 262.480149)"><g><path d="M 10.609375 -10.5 L 10.609375 0 L 9.375 0 L 3.078125 -7.828125 L 3.078125 0 L 1.578125 0 L 1.578125 -10.5 L 2.8125 -10.5 L 9.109375 -2.671875 L 9.109375 -10.5 Z M 10.609375 -10.5 "/></g></g></g></svg>